<!-- Generator: Adobe Illustrator 21.0.2, SVG Export Plug-In  -->
<svg version="1.1"
	 xmlns="http://www.w3.org/2000/svg" xmlns:xlink="http://www.w3.org/1999/xlink" xmlns:a="http://ns.adobe.com/AdobeSVGViewerExtensions/3.0/"
	 x="0px" y="0px" width="36.2px" height="20.5px" viewBox="0 0 36.2 20.5" style="enable-background:new 0 0 36.2 20.5;"
	 xml:space="preserve">
<style type="text/css">
	.st0{fill:#FFFFFF;}
</style>
<defs>
</defs>
<g id="nD6sRP_2_">
	<g>
		<path class="st0 draw-icon" d="M36.2,17.4c-0.6,0.1-1.2,0.2-1.8,0.3c-0.6,1.7-1.7,2.9-3.8,2.9c-1.8-0.1-2.9-1.2-3.5-2.9c-6,0-12,0-18.1,0
			c-0.6,1.7-1.7,2.9-3.6,2.9c-2,0-3.1-1.2-3.6-2.9c-0.6-0.1-1.2-0.2-1.7-0.3C0,16.9,0,16.5,0,16.1c0-4.9,0-9.7,0-14.6
			c0-0.2,0-0.4,0-0.6C0,0.2,0.3,0,0.9,0c0.3,0,0.5,0,0.8,0c8.8,0,17.5,0,26.3,0c1.5,0,1.5,0,2,1.4c0.8,2.3,1.5,4.6,2.3,6.9
			c0.2,0.6,0.5,1,1.2,1.2c0.7,0.2,1.4,0.4,2.1,0.7c0.3,0.1,0.7,0.5,0.7,0.7C36.2,13,36.2,15.1,36.2,17.4z M9.3,16.2
			c4.1,0,8.2,0,12.4,0c0-2,0-3.9,0-5.9c-6.8,0-13.6,0-20.3,0c-0.3,1.7-0.2,5,0.2,6C2,15.6,2.4,14.9,3,14.3c0.6-0.7,1.4-1,2.3-1
			c0.9,0,1.8,0.2,2.4,0.8C8.3,14.7,8.7,15.5,9.3,16.2z M23,9c2.8,0,5.4,0,8.1,0c-0.9-2.6-1.7-5.1-2.6-7.8c-1.9,0-3.7-0.1-5.5,0
			C23,3.9,23,6.4,23,9z M23,16.3c1.5,0,2.8,0,4.1,0c0.1-0.2,0.2-0.3,0.2-0.5c0.6-1.6,1.8-2.5,3.4-2.5c1.6,0,2.8,0.8,3.4,2.4
			c0.1,0.2,0.3,0.4,0.5,0.7c0.4-1,0.4-3.6,0.1-5.2c-1.1-0.3-2.3-0.8-3.5-0.8c-2.5-0.1-5.1,0-7.6,0c-0.2,0-0.4,0.1-0.7,0.1
			C23,12.3,23,14.2,23,16.3z M21.7,1.2c-2,0-4-0.1-5.9,0c0,2.7,0,5.2,0,7.7c2.1,0,4,0,5.9,0C21.7,6.4,21.7,3.9,21.7,1.2z M8.5,9
			c2,0,3.9,0,5.9,0c0-2.6,0-5.1,0-7.7c-2,0-3.9,0-5.9,0C8.5,3.9,8.5,6.4,8.5,9z M7.2,1.3c-2,0-3.9,0-5.9,0c0,2.6,0,5.1,0,7.7
			c2,0,3.9,0,5.9,0C7.2,6.4,7.2,3.9,7.2,1.3z M33.2,16.9c0-1.3-1.1-2.4-2.4-2.4c-1.3,0-2.4,1.1-2.4,2.4c0,1.4,1.1,2.5,2.5,2.4
			C32.2,19.3,33.2,18.2,33.2,16.9z M5.4,19.3c1.3,0,2.4-1.1,2.4-2.4c0-1.4-1.1-2.5-2.5-2.4C4,14.5,3,15.6,3,17
			C3.1,18.3,4.1,19.3,5.4,19.3z"/>
		<path class="st0 draw-icon" d="M30.8,16.1c0.3,0.4,0.6,0.6,0.5,0.8c0,0.2-0.3,0.4-0.5,0.6c-0.2-0.2-0.5-0.3-0.5-0.6
			C30.3,16.7,30.5,16.5,30.8,16.1z"/>
		<path class="st0 draw-icon" d="M5.4,17.7c-0.2-0.4-0.5-0.6-0.5-0.8c0-0.2,0.3-0.4,0.5-0.5c0.2,0.2,0.5,0.4,0.5,0.6C6,17.1,5.7,17.3,5.4,17.7
			z"/>
	</g>
</g>
</svg>
