<svg xmlns="http://www.w3.org/2000/svg" width="43" height="37" viewBox="0 0 43 37"><path d="M19.1 28.6c-.3-.1-.5-.3-.9-.5C20.1 24.8 22 21.6 24 18c-2 .9-3.9 1.5-5.9 1.3-2-.2-3.8-1-5.5-2.3-1 .8-1.8 1.8-2.7 2.7-.9.9-1.8 1.8-2.6 2.7-.9.9-1.8 1.9-2.7 2.9l-.9-.9 8.1-8.1C8.9 12.8 8.4 9 10.4 4.9 7 6.6 3.8 8.5.5 10.4c-.2-.4-.3-.6-.5-.9l.9-.6C5.1 6.5 9.3 4 13.5 1.6c3-1.7 6.1-2.1 9.3-.7 5.1 2.3 7.3 8.3 4.6 13.3-2.6 4.8-5.4 9.4-8.1 14.1 0 .1-.1.1-.2.3zm-.2-10.3c4.8 0 8.6-3.8 8.6-8.6S23.7 1.2 19 1.2c-4.8 0-8.6 3.7-8.6 8.6-.1 4.7 3.6 8.5 8.5 8.5z" fill="#5ab947"/></svg>
