<!-- Generator: Adobe Illustrator 21.0.2, SVG Export Plug-In  -->
<svg version="1.1"
	 xmlns="http://www.w3.org/2000/svg" xmlns:xlink="http://www.w3.org/1999/xlink" xmlns:a="http://ns.adobe.com/AdobeSVGViewerExtensions/3.0/"
	 x="0px" y="0px" width="22.8px" height="29px" viewBox="0 0 22.8 29" style="enable-background:new 0 0 22.8 29;"
	 xml:space="preserve">
<style type="text/css">
	.st0{fill:#FFFFFF;}
</style>
<defs>
</defs>
<path class="st0" d="M20.8,27c0,0.2-0.1,0.4-0.1,0.5c-0.1,1.2-0.4,1.4-1.5,1.4c-2.6,0-5.2,0-7.8,0c-3.1,0-6.2,0-9.3,0
	c-0.3,0-0.6,0-0.9,0c-0.8-0.1-1.1-0.4-1.2-1.2c0-0.3,0-0.5,0-0.8c0-7.7,0-15.3,0-23c0-0.2,0-0.4,0-0.6c0.1-0.9,0.3-1.1,1.2-1.3
	C1.4,2,1.7,2,1.9,2C2,1.9,2,1.8,2,1.7C2.2,0.1,2.3,0,3.9,0C9.6,0,15.3,0,21,0c0.3,0,0.5,0,0.8,0c0.6,0.1,0.9,0.4,1,1
	c0,0.3,0,0.5,0,0.8c0,7.8,0,15.5,0,23.3c0,0.2,0,0.3,0,0.5c-0.1,1-0.3,1.2-1.2,1.3C21.3,26.9,21.1,27,20.8,27z M1.1,27.9
	c6.2,0.1,12.3,0,18.4,0c0.3-1.6,0.2-19.7-0.1-20.7c-0.7,0-1.5,0-2.3,0c-1.3,0-1.6-0.3-1.6-1.6c0-0.8,0-1.6,0-2.4
	C13.7,3,2,3.1,1.1,3.4C1.1,11.5,1.1,19.6,1.1,27.9z M3.2,1.1C3.1,1.7,3.1,2,3.7,2.1c0.3,0,0.7,0,1,0c3.6,0,7.2,0,10.9,0
	c0.7,0,1.3,0.2,1.8,0.8c0.8,0.8,1.5,1.6,2.4,2.4c0.7,0.6,1,1.4,1,2.4c0,5.6,0,11.2,0,16.8c0,0.5,0,0.9,0,1.4c0.6,0.2,1,0.2,1-0.4
	c0-0.2,0-0.4,0-0.6c0-7.5,0-15,0-22.5c0-0.3-0.1-0.7-0.1-1.1C15.5,1.1,9.4,1.1,3.2,1.1z M18.8,6.1c0-0.1,0.1-0.2,0.1-0.3
	c-0.7-0.7-1.4-1.4-2.3-2.3c0,0.7,0,1,0,1.3c0,0.4,0,0.7,0.1,1.2c0.4,0,0.8,0.1,1.2,0.1C18.2,6.2,18.5,6.2,18.8,6.1z"/>
<path class="st0" d="M10.3,22.8c-1.6,0-3.3,0-4.9,0c-0.4,0-1.1,0.1-1.1-0.5c0-0.7,0.7-0.5,1.1-0.5c3.4,0,6.7,0,10.1,0
	c0.4,0,1-0.1,1,0.4c0,0.7-0.6,0.6-1.1,0.6C13.7,22.8,12,22.8,10.3,22.8z"/>
<path class="st0" d="M10.2,19.7c-1.6,0-3.2,0-4.8,0c-0.3,0-0.7-0.1-1-0.2c-0.1,0-0.2-0.3-0.2-0.4c0-0.1,0.2-0.3,0.3-0.4
	c0.3-0.1,0.6-0.1,0.9-0.1c3.3,0,6.6,0,9.9,0c0.4,0,1.1-0.2,1.1,0.5c0,0.7-0.7,0.5-1.2,0.6C13.6,19.7,11.9,19.7,10.2,19.7z"/>
<path class="st0" d="M10.4,15.5c1.5,0,3,0,4.5,0c0.3,0,0.6,0,0.9,0c0.3,0,0.8,0,0.7,0.5c0,0.2-0.4,0.5-0.6,0.5c-3.7,0-7.3,0-11,0
	c-0.2,0-0.6-0.3-0.6-0.5c-0.1-0.5,0.4-0.5,0.7-0.5C6.7,15.5,8.5,15.5,10.4,15.5C10.4,15.5,10.4,15.5,10.4,15.5z"/>
<path class="st0" d="M10.4,12.4c1.5,0,3.1,0,4.6,0c0.3,0,0.6,0,0.9,0c0.2,0.1,0.4,0.3,0.6,0.4c-0.2,0.2-0.4,0.4-0.6,0.5
	c-0.2,0.1-0.4,0-0.6,0c-3.3,0-6.5,0-9.8,0c-0.3,0-0.6,0-0.9-0.1c-0.2-0.1-0.3-0.3-0.3-0.5c0-0.1,0.2-0.4,0.4-0.4
	c0.3-0.1,0.6-0.1,0.9-0.1C7.1,12.4,8.8,12.4,10.4,12.4z"/>
<path class="st0" d="M7.3,9.3c0.8,0,1.5,0,2.3,0c0.2,0,0.6,0.2,0.7,0.4c0.1,0.4-0.3,0.6-0.7,0.6c-1.5,0-3.1,0-4.6,0
	c-0.1,0-0.2,0-0.3,0C4.5,10.2,4.4,10,4.2,9.8c0.2-0.2,0.3-0.4,0.5-0.5C5.6,9.3,6.4,9.3,7.3,9.3C7.3,9.3,7.3,9.3,7.3,9.3z"/>
</svg>
