<!-- Generator: Adobe Illustrator 21.0.2, SVG Export Plug-In  -->
<svg version="1.1"
	 xmlns="http://www.w3.org/2000/svg" xmlns:xlink="http://www.w3.org/1999/xlink" xmlns:a="http://ns.adobe.com/AdobeSVGViewerExtensions/3.0/"
	 x="0px" y="0px" width="41.2px" height="26.6px" viewBox="0 0 41.2 26.6" style="enable-background:new 0 0 41.2 26.6;"
	 xml:space="preserve">
<style type="text/css">
	.st0{fill:#FFFFFF;}
</style>
<defs>
</defs>
<path class="st0 draw-icon" d="M32.6,16.5c0.9,2.3,0,4.3-2.9,4.3c-1.1,2.2-1.6,2.4-3.9,2.2c-1.2,2.4-2.5,2.2-4.4,1.7c-0.6,1.2-1.5,1.9-2.9,1.8
	c-1.4-0.1-2-1.2-3-2c-0.2,0.2-0.5,0.3-0.7,0.5c-1.4,1-3,0.8-4-0.7c-0.3-0.4-0.6-0.6-1.1-0.7c-1-0.1-1.7-0.7-2-1.6
	c-0.2-0.5-0.6-0.7-0.9-1c-1.2-1-2.3-2-3.3-3.1C2.7,17.1,3,16,3.6,15c0.2-0.3,0.5-0.5,0.7-0.8C5,13.6,5,13,4.5,12.2
	C4.3,12,4.2,11.9,4,11.7c-0.2-0.2-0.5-0.5-0.8-0.7c-0.3,0.3-0.6,0.5-1,0.8C1.5,11,0.8,10.2,0,9.4c0.2-0.2,0.5-0.5,0.8-0.8
	c0.5,0.5,1,0.9,1.3,1.2c2.5-2.5,5-5,7.6-7.6C9.5,1.8,9.1,1.3,8.6,0.8C8.9,0.5,9.1,0.2,9.4,0c0.8,0.8,1.5,1.5,2.4,2.4
	c-0.1,0.2-0.4,0.5-0.6,0.8c0.1,0.1,0.1,0.2,0.2,0.3c0.9,0.8,1.8,1,3,0.6c1.5-0.6,3.1-1,4.7-1.5c1.3-0.4,2.5-0.3,3.6,0.2
	c0.7,0.3,1.3,0.6,2,0.9c1,0.4,2.1,0.5,3.2,0.3c0.7-0.2,1.4-0.3,1.9-1.1c0.4-0.8,1.2-1.4,1.8-2.1c0.4,0.4,0.7,0.6,1.1,0.9
	c-0.5,0.5-0.9,1-1.2,1.4c2.5,2.5,5,5,7.6,7.6c0.4-0.3,0.8-0.7,1.3-1.2c0.3,0.3,0.6,0.5,0.9,0.8c-0.8,0.8-1.6,1.5-2.4,2.2
	c-0.8-0.3-1.4-0.2-1.9,0.5C35.8,14.6,34.3,15.7,32.6,16.5z M24.5,14.3c1.5,1.5,2.9,2.9,4.4,4.3c0.3,0.3,0.6,0.6,1,0.8
	c0.6,0.3,1.1,0,1.5-0.4c0.4-0.5,0.5-1,0.1-1.5c-0.2-0.3-0.5-0.5-0.7-0.8c-2.3-2.3-4.6-4.6-7-6.9c-1.5-1.5-1.5-1.5-3.5-1.1
	C19,8.8,17.6,9,16.2,9.2c-2.1,0.2-3.9-0.4-5.3-2.1c-0.5-0.7-1-1.4-0.2-2.3c-0.3-0.2-0.5-0.4-0.6-0.5c-1.9,1.9-3.8,3.8-5.7,5.8
	c0.9,0.9,1.9,1.8,1.9,3.1c0.9,0.6,1.6,1.1,2.3,1.5C8.7,14.8,9,15,9.2,15c1,0.3,1.7,0.8,2,1.8c0.1,0.3,0.4,0.6,0.7,0.7
	c0.9,0.3,1.4,0.9,1.8,1.8c0.1,0.3,0.4,0.5,0.7,0.7c1.2,0.5,1.8,1.4,1.8,2.7c0,0.3,0.1,0.6,0.2,0.8c0.5,0.6,1,1.1,1.6,1.5
	c0.5,0.4,1.1,0.4,1.6-0.1c0.6-0.6,0.7-1.2,0.1-1.9c-0.6-0.6-1.2-1.2-1.8-1.9c0.4-0.3,0.6-0.6,1.1-1c0.4,0.5,0.7,0.9,1.1,1.3
	c0.7,0.7,1.4,1.5,2.2,2.2c0.6,0.5,1.3,0.4,1.8-0.1c0.5-0.5,0.5-1.1,0-1.7c-0.3-0.3-0.6-0.6-0.9-0.9c-0.8-0.8-1.6-1.6-2.5-2.5
	c0.4-0.3,0.6-0.6,1-0.9c0.9,0.9,1.7,1.7,2.5,2.5c0.6,0.6,1.1,1.2,1.8,1.7c0.7,0.6,1.3,0.6,1.8,0c0.6-0.6,0.6-1.2,0-1.9
	c-0.3-0.3-0.6-0.6-0.9-0.9c-1.1-1.1-2.2-2.2-3.3-3.3C23.9,14.9,24.2,14.6,24.5,14.3z M11.9,6.2c1.2,1.4,2.5,1.9,4,1.7
	c1.9-0.2,3.8-0.5,5.7-0.8c0.8-0.1,1.4,0,2.1,0.6c2.3,2.3,4.6,4.6,6.9,6.9c0.3,0.3,0.6,0.6,0.9,0.8c1.5-0.6,2.8-1.4,3.8-2.6
	c0.5-0.6,1.1-1.2,1.5-1.7c-2.1-2.1-4.2-4.3-6.5-6.6c-0.3,0.1-0.6,0.2-1,0.3c-1.9,0.6-3.8,0.6-5.7-0.2c-0.5-0.2-1-0.4-1.4-0.6
	c-1.1-0.5-2.1-0.6-3.2-0.2c-1.6,0.6-3.3,1-4.9,1.5C13.5,5.6,12.8,5.9,11.9,6.2z M13,24.3c0.7,0,1.8-1,1.9-1.7
	c0.1-0.7-0.5-1.4-1.5-1.4c-0.7,0-1-0.3-1-1c0-1-0.4-1.3-1.4-1.4c-0.8,0-1-0.3-1.1-1.1c0-0.9-0.5-1.3-1.3-1.3c-0.7,0-1-0.2-1.3-0.8
	c-0.3-0.6-0.8-0.8-1.5-0.7c-0.6,0.2-1.4,1.2-1.5,1.7c0,0.6,0.3,1.2,1.1,1.4c0.5,0.1,0.8,0.4,0.9,0.9c0.2,0.7,0.6,1,1.3,1
	c0.8,0,1,0.4,1,1.1c0,0.9,0.7,1.4,1.6,1.3c1-0.1,1-0.1,1.3,0.9C11.9,24,12.4,24.3,13,24.3z"/>
<path class="st0" d="M2.2,9.1C1.9,8.7,1.7,8.4,1.4,8c0.2-0.2,0.5-0.5,0.8-0.9c0.3,0.3,0.6,0.6,1,1C2.9,8.4,2.7,8.7,2.2,9.1z"/>
<path class="st0" d="M38.9,8c0.3,0.4,0.6,0.6,0.9,1c-0.3,0.3-0.6,0.6-1,1.1c-0.3-0.4-0.6-0.6-0.9-0.9C38.3,8.7,38.5,8.4,38.9,8z"/>
</svg>
