<!-- Generator: Adobe Illustrator 21.0.2, SVG Export Plug-In  -->
<svg version="1.1"
	 xmlns="http://www.w3.org/2000/svg" xmlns:xlink="http://www.w3.org/1999/xlink" xmlns:a="http://ns.adobe.com/AdobeSVGViewerExtensions/3.0/"
	 x="0px" y="0px" width="26.8px" height="30.5px" viewBox="0 0 26.8 30.5" style="enable-background:new 0 0 26.8 30.5;"
	 xml:space="preserve">
<style type="text/css">
	.st0{fill:#FFFFFF;}
</style>
<defs>
</defs>
<path class="st0" d="M26.8,15.1c0,3.9,0,7.8,0,11.6c0,0.5,0,1-0.1,1.4c-0.3,1.5-1.5,2.3-3.1,2.3c-5.7,0-11.5,0-17.2,0
	c-1.1,0-2.2,0-3.2,0c-2.1,0-3.1-1-3.1-3.1C0,21,0,14.6,0,8.2C0,6.6,0,5,0,3.4C0,1.2,1.2,0,3.3,0c6.7,0,13.4,0,20.2,0
	c2.2,0,3.2,1,3.2,3.2C26.8,7.2,26.7,11.2,26.8,15.1C26.7,15.1,26.7,15.1,26.8,15.1z M0.9,23.3c0,1.5-0.1,3,0,4.5
	c0.1,1,0.9,1.6,1.9,1.7c0.3,0,0.6,0,0.9,0c6.5,0,13,0,19.5,0c0.4,0,0.8,0,1.2,0c0.7-0.1,1.3-0.6,1.4-1.3c0.2-1.6,0.1-3.2,0.1-4.9
	c-3.7,0-7.2,0-10.7,0c-1.7,2.3-2.9,2.3-4.6,0c-1.2,0-2.5,0-3.8,0c-0.5,0.9-1.1,1.7-2.3,1.7c-1.2,0-1.7-0.8-2.2-1.7
	C1.9,23.3,1.4,23.3,0.9,23.3z M12.8,8c-4,0-7.9,0-11.9,0c0,2.3,0,4.4,0,6.7c0.6,0,1.1,0,1.6,0C3,13.7,3.6,13,4.8,13
	c1.1,0,1.7,0.9,2.2,1.7c0.4,0,0.8,0,1.2-0.1c0.4-1,1.1-1.7,2.2-1.7c1.1,0,1.8,0.8,2.1,1.7c0.7,0,1.2,0,1.6,0c1.6-2.3,2.9-2.3,4.6,0
	c0.4,0,0.8,0,1.1,0c1.6-2.3,2.9-2.3,4.6,0c0.4,0,0.9-0.1,1.4-0.1c0-2.3,0-4.5,0-6.7c-1.1,0-2,0-2.9,0c-0.5,0.9-1.1,1.7-2.3,1.7
	c-1.2,0-1.7-0.9-2.2-1.7c-0.4,0-0.8,0-1.2,0.1C16,10.3,13.9,10.1,12.8,8z M0.9,6.8c4.1,0,8.1,0,12.1,0c0.2-0.3,0.3-0.5,0.5-0.8
	c1-1.2,2.6-1.2,3.5,0.1c0.5,0.7,0.9,0.9,1.7,0.7c1.3-2.3,3.2-2.2,4.6,0.1c0.4,0,0.8,0,1.2,0c0.5,0,0.9,0,1.5-0.1
	c0-1.4,0.1-2.6,0-3.9c-0.1-1.2-0.9-1.8-2-1.9c-0.2,0-0.3,0-0.5,0C16.6,1,10,1,3.3,1C3,1,2.7,1,2.4,1.1C1.5,1.3,0.9,1.8,0.9,2.7
	C0.8,4,0.9,5.4,0.9,6.8z M14.1,15.8c-0.5,0-1.1,0-1.7,0c-0.4,1-1.1,1.7-2.2,1.7c-1.1,0-1.7-0.9-2.2-1.8c-0.4,0-0.8,0-1.1,0.1
	c-1.6,2.3-2.9,2.3-4.6,0c-0.4,0-0.8,0-1.4,0c0,2.1,0,4.2,0,6.3c0.7,0,1.1,0,1.6,0c1.2-2.3,3.3-2.3,4.5,0c1.2,0,2.5,0,3.8,0
	c0.5-0.9,1.1-1.7,2.2-1.7c1.2,0,1.8,0.8,2.3,1.8c3.6-0.1,7.1,0.1,10.6-0.1c0-2.2,0-4.2,0-6.3c-0.6,0-1.1,0-1.6,0
	c-0.5,0.9-1.1,1.7-2.2,1.7c-1.1,0-1.7-0.8-2.2-1.7c-0.5,0-0.8,0-1.2,0C17.3,18.2,15.3,18.1,14.1,15.8z M10.2,14
	c-0.7,0-1.2,0.5-1.2,1.1c0,0.7,0.6,1.3,1.3,1.3c0.7,0,1.3-0.6,1.2-1.2C11.6,14.6,10.9,14,10.2,14z M5.9,15.3c0-0.7-0.7-1.3-1.4-1.3
	c-0.7,0-1.2,0.6-1.2,1.2c0.1,0.7,0.7,1.3,1.4,1.2C5.4,16.5,6,15.9,5.9,15.3z M23.4,15.3c0-0.7-0.6-1.3-1.3-1.3
	c-0.6,0-1.2,0.5-1.2,1.1c0,0.7,0.7,1.4,1.4,1.4C22.9,16.5,23.4,16,23.4,15.3z M12.9,21.5c-0.7,0-1.2,0.4-1.2,1
	c-0.1,0.7,0.5,1.3,1.2,1.4c0.7,0.1,1.3-0.4,1.3-1.1C14.2,22.1,13.6,21.5,12.9,21.5z M5.9,22.8c0-0.7-0.6-1.3-1.3-1.3
	c-0.7,0-1.3,0.5-1.2,1.2c0,0.7,0.7,1.3,1.4,1.2C5.4,23.9,6,23.4,5.9,22.8z M16.4,7.5c0-0.7-0.5-1.3-1.3-1.4c-0.7,0-1.3,0.5-1.3,1.1
	c0,0.7,0.6,1.3,1.3,1.3C15.9,8.6,16.4,8.2,16.4,7.5z M17.7,15.3c0-0.7-0.6-1.3-1.3-1.3c-0.6,0-1.2,0.5-1.2,1.1
	c0,0.7,0.7,1.4,1.4,1.4C17.2,16.5,17.7,16,17.7,15.3z M20.9,8.6c0.7,0,1.2-0.5,1.2-1.1c0-0.7-0.6-1.3-1.3-1.3
	c-0.7,0-1.3,0.5-1.3,1.1C19.5,8,20.2,8.6,20.9,8.6z"/>
</svg>
