<!-- Generator: Adobe Illustrator 21.0.2, SVG Export Plug-In  -->
<svg version="1.1"
	 xmlns="http://www.w3.org/2000/svg" xmlns:xlink="http://www.w3.org/1999/xlink" xmlns:a="http://ns.adobe.com/AdobeSVGViewerExtensions/3.0/"
	 x="0px" y="0px" width="27.2px" height="27.7px" viewBox="0 0 27.2 27.7" style="enable-background:new 0 0 27.2 27.7;"
	 xml:space="preserve">
<style type="text/css">
	.st0{fill:#5AB947;}
</style>
<defs>
</defs>
<path class="st0" d="M13.6,0C23.4,0,30,10.1,26,19c-0.4,0.9-0.5,1.7-0.2,2.6c0.5,1.6,0.8,3.2,1.2,4.8c0.3,1.2-0.1,1.6-1.3,1.2
	c-1.7-0.5-3.4-1-5-1.6c-0.6-0.2-1.2-0.2-1.8,0.1c-8.5,3.5-17.7-1.8-18.8-10.9C-1,6.7,5.9-0.1,13.6,0z M25.3,25.8
	c-0.4-1.6-0.7-2.9-1.1-4.2c-0.3-1-0.2-1.9,0.2-2.9c2-4.3,1.6-8.5-1.2-12.3C20.4,2.6,16.4,1,11.8,1.7c-4.9,0.8-8.3,3.7-9.7,8.5
	c-1.4,4.8-0.2,9,3.5,12.3c3.7,3.3,8.1,4,12.8,2.1c1-0.4,1.9-0.5,2.8-0.1c0.3,0.1,0.7,0.2,1,0.3C23.1,25.2,24.1,25.5,25.3,25.8z"/>
<path class="st0" d="M13.7,19.4c-3,0-5.8-2.3-6.1-5.2c0-0.3-0.1-0.7,0-1c0.1-0.3,0.4-0.6,0.7-0.6c0.2,0,0.6,0.3,0.7,0.5
	C9,13.3,9,13.6,9,13.9c0.4,2.3,2.4,3.9,4.6,3.9c2.2,0,4.1-1.7,4.5-3.9c0-0.3,0-0.5,0.1-0.8c0.1-0.4,0.3-0.7,0.8-0.7
	c0.5,0,0.7,0.3,0.7,0.8c0,0.5,0,1-0.1,1.4C18.9,17.4,16.5,19.3,13.7,19.4z"/>
</svg>
