<!-- Generator: Adobe Illustrator 21.0.2, SVG Export Plug-In  -->
<svg version="1.1"
	 xmlns="http://www.w3.org/2000/svg" xmlns:xlink="http://www.w3.org/1999/xlink" xmlns:a="http://ns.adobe.com/AdobeSVGViewerExtensions/3.0/"
	 x="0px" y="0px" width="31.3px" height="31.1px" viewBox="0 0 31.3 31.1" style="enable-background:new 0 0 31.3 31.1;"
	 xml:space="preserve">
<style type="text/css">
	.st0{fill:#00B939;}
</style>
<defs>
</defs>
<path class="st0 draw-icon" d="M23.2,24.6c-0.5,0.2-0.9,0.4-1.2,0.5c-1.2,0.4-2.4,0.3-3.5-0.4c-4.9-3.2-8.9-7.2-12.1-12.1
	c-1-1.6-0.9-3.3,0.4-4.7c0.4-0.5,0.9-0.9,1.4-1.4c1.2-1,2.8-1,4,0.1c0.5,0.5,1,1,1.5,1.5c1.2,1.2,1.3,2.4,0.2,3.8
	c-0.1,0.2-0.2,0.3-0.4,0.6c1.6,1.9,3.3,3.6,5.2,5.2c0.3-0.2,0.6-0.4,0.9-0.6c1.3-0.7,2.5-0.6,3.5,0.5c0.5,0.4,0.9,0.9,1.4,1.4
	c1.3,1.3,1.4,2.6,0.2,4c-0.1,0.1-0.2,0.3-0.4,0.4c0,0.3,0.1,0.6,0.2,1c0.3,2.5-0.7,4.4-2.9,5.5c-1.6,0.8-3.3,1.1-5.1,1.2
	C7.8,31.5,0.5,24.9,0,16.2C-0.4,8.9,5,2,12.3,0.4c8.9-2,17.5,3.9,18.9,12.9c0.6,3.7-0.1,7.2-2.1,10.4c-0.2,0.3-0.5,0.6-0.8,0.8
	c-0.1,0.1-0.5,0-0.7-0.1c-0.1-0.1-0.1-0.4,0-0.6c0.1-0.2,0.3-0.4,0.4-0.7C33.3,14,27.9,2.6,17.4,1.2C9.6,0.1,2.3,5.9,1.5,13.7
	c-0.9,7.8,4,14.6,11.6,16.1c2.2,0.4,4.4,0.4,6.5-0.2c1.1-0.3,2.2-0.8,2.9-1.8C23.2,26.8,23.4,25.8,23.2,24.6z M12,12.5
	c0-0.1,0-0.2,0.1-0.2c0.3-0.3,0.6-0.7,0.8-1c0.7-0.9,0.7-1.4,0-2.3c-0.3-0.3-0.6-0.6-0.9-0.9c-1.8-1.8-1.9-1.8-3.7,0.1
	c-1.5,1.5-1.6,2.4-0.4,4.2c2.5,3.8,5.6,7,9.2,9.7c0.8,0.6,1.7,1.2,2.6,1.8c1,0.6,1.9,0.5,2.7-0.3c0.6-0.5,1.1-1,1.6-1.6
	c0.6-0.7,0.5-1.3,0-2c-0.5-0.5-1-1-1.5-1.6c-1.1-1.1-1.4-1.1-2.6,0c-0.9,0.8-1.1,0.9-1.9,0.1c-1.8-1.7-3.5-3.5-5.3-5.3
	C12.3,13.1,12.1,12.7,12,12.5z"/>
</svg>