<!-- Generator: Adobe Illustrator 21.0.2, SVG Export Plug-In  -->
<svg version="1.1"
	 xmlns="http://www.w3.org/2000/svg" xmlns:xlink="http://www.w3.org/1999/xlink" xmlns:a="http://ns.adobe.com/AdobeSVGViewerExtensions/3.0/"
	 x="0px" y="0px" width="29.6px" height="32.5px" viewBox="0 0 29.6 32.5" style="enable-background:new 0 0 29.6 32.5;"
	 xml:space="preserve">
<style type="text/css">
	.st0{fill:#5AB947;}
</style>
<defs>
</defs>
<path class="st0" d="M0,4.2c2.8-0.8,5.6-1.6,8.3-2.4c1.9-0.5,3.7-1.1,5.6-1.6c0.5-0.1,1.1-0.2,1.6,0C20,1.4,24.5,2.7,29,4
	c0.2,0,0.3,0.1,0.6,0.3c-0.2,1.5-0.4,2.9-0.6,4.4c-0.7,4.8-1.5,9.5-2.2,14.3c-0.1,0.5-0.2,1-0.7,1.3c-3.6,2.6-7.2,5.3-10.8,8
	c-0.1,0.1-0.2,0.1-0.4,0.2c-0.2-0.1-0.4-0.2-0.6-0.4c-3.5-2.6-6.9-5.1-10.4-7.7C3.2,24,3,23.6,2.9,22.9C2,17,1,11.1,0.1,5.2
	C0,4.9,0,4.6,0,4.2z M26.9,13.7c-1.3-0.3-10.5-0.2-11.5,0c-0.3,2.2-0.2,15.8,0.2,16.7c0.3-0.2,0.6-0.4,1-0.7
	c2.6-1.9,5.2-3.9,7.8-5.7c0.8-0.6,1.3-1.2,1.3-2.2c0-0.8,0.2-1.5,0.4-2.3C26.4,17.6,26.6,15.6,26.9,13.7z M2.7,13.6
	c0,0.1-0.1,0.2-0.1,0.3c0.4,2.9,0.9,5.7,1.3,8.6c0.1,0.6,0.4,1,0.9,1.3c2.8,2.1,5.6,4.1,8.4,6.2c0.2,0.2,0.5,0.3,0.8,0.5
	c0-5.7,0-11.3,0-16.9C10.3,13.6,6.5,13.6,2.7,13.6z M15.4,12.2c4,0,7.8,0,11.8,0c0.4-2.4,0.7-4.7,1.1-7.2C24,3.8,19.7,2.5,15.4,1.3
	C15.4,5,15.4,8.5,15.4,12.2z M2.4,12.2c4,0,7.8,0,11.8,0c0-3.6,0.1-7.2-0.1-10.9C9.8,2.6,5.5,3.8,1.3,5C1.7,7.5,2,9.8,2.4,12.2z"/>
</svg>
