<!-- Generator: Adobe Illustrator 21.0.2, SVG Export Plug-In  -->
<svg version="1.1"
	 xmlns="http://www.w3.org/2000/svg" xmlns:xlink="http://www.w3.org/1999/xlink" xmlns:a="http://ns.adobe.com/AdobeSVGViewerExtensions/3.0/"
	 x="0px" y="0px" width="45.2px" height="21.1px" viewBox="0 0 45.2 21.1" style="enable-background:new 0 0 45.2 21.1;"
	 xml:space="preserve">
<style type="text/css">
	.st0{fill:#5AB947;}
</style>
<defs>
</defs>
<path class="st0" d="M45.2,19.2c-1.2,0-2.3,0-3.4,0c-0.3,0-0.8,0.2-1,0.5c-1.5,1.9-4,1.9-5.6,0c-0.2-0.3-0.7-0.5-1-0.5
	c-7.7,0-15.5,0-23.2,0c-0.3,0-0.8,0.2-1,0.5c-1.5,1.9-4,1.9-5.6,0c-0.2-0.3-0.7-0.5-1-0.5c-1.1-0.1-2.2,0-3.4,0C0,12.7,0,6.4,0,0
	c0.4,0,0.7,0,1,0c13.3,0,26.5,0,39.8,0c2.8,0,4.3,1.5,4.3,4.4c0,4.6,0,9.2,0,13.8C45.2,18.5,45.2,18.8,45.2,19.2z M44.1,18.2
	c0-1.9,0-3.8,0-5.7c-1,0-1.8,0-2.8,0c0-0.4,0-0.6,0-0.9c0.9,0,1.8,0,2.8,0c0-1,0-1.9,0-2.8c-3.2,0-6.3,0-9.6,0c0,1.3,0,2.5,0,3.7
	c-0.4,0-0.6,0-1,0c0-1.3,0-2.5,0-3.7c-10.9,0-21.8,0-32.7,0c0,0.3,0,0.6,0.1,0.8c0.3,0,0.6,0.1,0.9,0.1c0,0.3,0,0.5,0,0.8
	c-0.3,0.1-0.6,0.1-0.9,0.2c0,2.5,0,5,0,7.5c1,0,1.9,0,2.8,0c0-0.1,0-0.2,0-0.3c0.1-1.7,1-2.9,2.4-3.3c1.4-0.4,2.7,0,3.8,1.3
	c0.2,0.2,0.6,0.4,1,0.4c1.8,0,3.5,0,5.3,0c0,0.4,0,0.7-0.1,1c-1.9,0-3.8,0-5.7,0c0,0.3,0,0.6,0,0.8c8,0,16,0,24,0
	c0.2-2.3,1.4-3.8,3.3-3.7c0.8,0,1.6,0.4,2.2,0.8c1,0.7,1.3,1.8,1.2,2.9C42.3,18.2,43.2,18.2,44.1,18.2z M44.2,7.6c0-1.3,0-2.4,0-3.6
	c0-1.9-1.2-3-3.1-3.1c-1.7,0-3.4,0-5,0c-0.8,0-1.6,0-2.4,0c0,2.3,0,4.5,0,6.7C37.2,7.6,40.6,7.6,44.2,7.6z M32.6,1C30,1,27.5,1,25,1
	c0,2.2,0,4.4,0,6.6c2.6,0,5,0,7.6,0C32.6,5.4,32.6,3.2,32.6,1z M16.3,1c0,2.3,0,4.4,0,6.6c2.6,0,5.1,0,7.6,0c0-2.2,0-4.4,0-6.6
	C21.4,1,18.9,1,16.3,1z M7.7,1c0,2.3,0,4.4,0,6.6c2.6,0,5.1,0,7.6,0c0-2.2,0-4.4,0-6.6C12.7,1,10.2,1,7.7,1z M1,7.6
	c1.9,0,3.8,0,5.6,0c0-2.2,0-4.4,0-6.6C4.7,1,2.8,1,1,1C1,3.2,1,5.4,1,7.6z M40.3,17.7c0-1.4-1.1-2.4-2.4-2.4c-1.4,0-2.4,1.1-2.4,2.4
	c0,1.3,1.1,2.3,2.4,2.4C39.3,20.1,40.3,19.1,40.3,17.7z M7.1,15.4c-1.4,0-2.4,1.1-2.4,2.4c0,1.3,1.1,2.3,2.4,2.3
	c1.3,0,2.4-1.1,2.4-2.4C9.6,16.4,8.5,15.3,7.1,15.4z"/>
<path class="st0" d="M30.7,11.5c0,0.3,0,0.5,0,0.9c-8,0-15.9,0-23.9,0c0-0.3,0-0.5,0-0.9C14.7,11.5,22.7,11.5,30.7,11.5z"/>
<path class="st0" d="M10.5,10.5c0-0.3,0-0.6,0-0.9c4.8,0,9.6,0,14.3,0c0,0.3,0,0.6,0,0.9C20.1,10.5,15.4,10.5,10.5,10.5z"/>
<path class="st0" d="M38,16.3c0.7,0,1.4,0.7,1.4,1.4c0,0.8-0.7,1.5-1.5,1.5c-0.8,0-1.4-0.7-1.4-1.4C36.5,17,37.2,16.3,38,16.3z"/>
<path class="st0" d="M7.2,16.3c0.8,0,1.5,0.7,1.4,1.5c0,0.7-0.7,1.4-1.4,1.4c-0.8,0-1.5-0.7-1.4-1.5C5.7,16.9,6.4,16.3,7.2,16.3z"/>
</svg>
