<!-- Generator: Adobe Illustrator 21.0.2, SVG Export Plug-In  -->
<svg version="1.1"
	 xmlns="http://www.w3.org/2000/svg" xmlns:xlink="http://www.w3.org/1999/xlink" xmlns:a="http://ns.adobe.com/AdobeSVGViewerExtensions/3.0/"
	 x="0px" y="0px" width="34.3px" height="34.9px" viewBox="0 0 34.3 34.9" style="enable-background:new 0 0 34.3 34.9;"
	 xml:space="preserve">
<style type="text/css">
	.st0{fill:#5AB947;}
</style>
<defs>
</defs>
<path class="st0" d="M21.1,34.8c-0.3,0-0.5,0-0.8,0c0-3.3,0-6.6,0-10c-2.2,0-4.3,0-6.5,0c0,3.3,0,6.6,0,10c-0.3,0-0.6,0-0.9,0
	c0-0.3,0-0.6,0-0.9c0-10.9,0-21.8,0-32.7c0-1.2,0-1.2,1.2-1.2c2.1,0,4.1,0,6.2,0c0.6,0,0.9,0.2,0.9,0.9c0,11.2,0,22.3,0,33.5
	C21.2,34.5,21.1,34.6,21.1,34.8z M13.9,4.9c0,1,0,2,0,3c2.2,0,4.2,0,6.3,0c0-1,0-2,0-3C18.1,4.9,16,4.9,13.9,4.9z M20.2,12.9
	c-2.1,0-4.3,0-6.4,0c0,1,0,2,0,2.9c2.2,0,4.3,0,6.4,0C20.2,14.9,20.2,13.9,20.2,12.9z M20.2,19.8c0-1,0-2,0-3c-2.1,0-4.2,0-6.4,0
	c0,1,0,2,0,3C16,19.8,18,19.8,20.2,19.8z M13.9,20.8c0,1.1,0,2,0,3c2.2,0,4.2,0,6.3,0c0-1,0-2,0-3C18.1,20.8,16,20.8,13.9,20.8z
	 M20.2,11.9c0-1,0-2,0-3c-2.1,0-4.2,0-6.4,0c0,1,0,2,0,3C16,11.9,18,11.9,20.2,11.9z M13.8,3.9c2.1,0,4.2,0,6.4,0c0-1,0-2,0-2.9
	C18,1,16,1,13.8,1C13.8,2,13.8,2.9,13.8,3.9z"/>
<path class="st0" d="M11.5,34.8c-0.3,0-0.5,0-0.8,0c0-4.7,0-9.3,0-14c-3.3,0-6.5,0-9.8,0c0,4.7,0,9.3,0,14c-0.4,0-0.6,0-0.9,0
	c0-0.4,0-0.7,0-1c0-9.5,0-19.1,0-28.6c0-1.2,0-1.2,1.2-1.2c3.1,0,6.3,0,9.4,0c0.7,0,0.9,0.2,0.9,0.9c0,9.9,0,19.7,0,29.6
	C11.6,34.5,11.6,34.6,11.5,34.8z M0.9,15.9c3.3,0,6.4,0,9.7,0c0-1,0-2,0-3c-3.3,0-6.4,0-9.7,0C0.9,13.9,0.9,14.8,0.9,15.9z M0.9,7.9
	c3.3,0,6.4,0,9.7,0c0-1,0-2,0-3c-3.3,0-6.4,0-9.7,0C0.9,5.9,0.9,6.9,0.9,7.9z M10.6,8.9c-3.3,0-6.5,0-9.7,0c0,1,0,2,0,2.9
	c3.3,0,6.5,0,9.7,0C10.6,10.8,10.6,9.9,10.6,8.9z M10.6,19.8c0-1,0-2,0-3c-3.3,0-6.4,0-9.7,0c0,1,0,2,0,3
	C4.2,19.8,7.4,19.8,10.6,19.8z"/>
<path class="st0" d="M33.4,12.7c-3.3,0-6.5,0-9.8,0c0,7.4,0,14.7,0,22.2c-0.4,0-0.6,0-1,0c0-0.4,0-0.7,0-1.1c0-6.9,0-13.7,0-20.6
	c0-1.4,0-1.4,1.5-1.5c0-0.8,0-1.7,0-2.5c0-1.2,0-1.2,1.2-1.2c1,0,2,0,3,0c1.4,0,1.4,0,1.4,1.4c0,0.7,0,1.5,0,2.3c1.2,0,2.4,0,3.5,0
	c0.6,0,1,0.2,1,0.9c0,7.3,0,14.5,0,21.8c0,0.1,0,0.2,0,0.4c-0.3,0-0.5,0-0.8,0C33.4,27.4,33.4,20.1,33.4,12.7z M28.8,8.9
	c-1.3,0-2.5,0-3.7,0c0,1,0,1.9,0,2.7c1.3,0,2.5,0,3.7,0C28.8,10.7,28.8,9.8,28.8,8.9z"/>
<path class="st0" d="M30.5,34.9c-0.4,0-0.6,0-0.9-0.1c0-1.4,0-2.7,0-4.1c-0.7,0-1.4,0-2.1,0c0,1.4,0,2.7,0,4.1c-0.3,0-0.6,0-0.9,0
	c0-1.5,0-3,0-4.4c0-0.5,0.3-0.7,0.7-0.7c0.9,0,1.7,0,2.6,0c0.2,0,0.7,0.4,0.7,0.6C30.5,31.8,30.5,33.3,30.5,34.9z"/>
<path class="st0" d="M18.1,30.6c-0.7,0-1.4,0-2.1,0c0,1.4,0,2.7,0,4.2c-0.3,0-0.6,0-0.8,0c0-0.1-0.1-0.1-0.1-0.2c0-1.4,0-2.8,0-4.1
	c0-0.6,0.2-0.8,0.8-0.8c0.8,0,1.6,0,2.5,0c0.5,0,0.7,0.2,0.7,0.7c0,1.5,0,2.9,0,4.4c-0.3,0-0.6,0-0.9,0C18.1,33.4,18.1,32,18.1,30.6
	z"/>
<path class="st0" d="M4.8,34.8c-0.4,0-0.6,0-0.8,0c0-0.1-0.1-0.2-0.1-0.3c0-1.4,0-2.7,0-4.1c0-0.6,0.2-0.8,0.8-0.8
	c0.8,0,1.7,0,2.5,0c0.2,0,0.7,0.4,0.7,0.6c0.1,1.5,0,3,0,4.5c-0.3,0-0.6,0-0.9,0c0-1.4,0-2.7,0-4.1c-0.7,0-1.4,0-2.1,0
	C4.8,32,4.8,33.4,4.8,34.8z"/>
<path class="st0" d="M29,26.9c0,0.3,0.1,0.7,0,1c0,0.2-0.3,0.3-0.4,0.5c-0.1-0.1-0.4-0.3-0.4-0.4c-0.1-0.6-0.1-1.3,0-1.9
	c0-0.2,0.3-0.3,0.5-0.5c0.1,0.2,0.3,0.3,0.4,0.5C29.1,26.3,29,26.6,29,26.9C29,26.9,29,26.9,29,26.9z"/>
<path class="st0" d="M29,21.5c0,0.3,0.1,0.7,0,1c0,0.2-0.3,0.3-0.4,0.5c-0.1-0.2-0.4-0.3-0.4-0.5c-0.1-0.6-0.1-1.3,0-1.9
	c0-0.2,0.3-0.3,0.5-0.5c0.1,0.2,0.4,0.3,0.4,0.5C29.1,20.9,29,21.2,29,21.5C29,21.5,29,21.5,29,21.5z"/>
<path class="st0" d="M29.2,16.2c-0.2,0.4-0.5,1.3-0.6,1.2c-0.8-0.2-0.3-0.9-0.4-1.4c-0.1-0.3-0.1-0.6,0-0.9c0.1-0.2,0.3-0.4,0.4-0.6
	c0.2,0.2,0.4,0.3,0.4,0.5c0.1,0.3,0,0.6,0,1C29.1,16.1,29.2,16.2,29.2,16.2z"/>
<path class="st0" d="M31.1,21.5c0-0.3-0.1-0.6,0-0.9c0.1-0.2,0.3-0.4,0.4-0.6c0.2,0.2,0.4,0.3,0.4,0.5c0.1,0.6,0.1,1.2,0,1.8
	c0,0.2-0.3,0.3-0.4,0.5c-0.1-0.2-0.3-0.4-0.4-0.6C31,22.1,31.1,21.8,31.1,21.5z"/>
<path class="st0" d="M26.1,21.4c0,0.3,0.1,0.6,0,0.9c-0.1,0.2-0.3,0.4-0.4,0.6c-0.1-0.2-0.4-0.4-0.4-0.6c-0.1-0.6-0.1-1.2,0-1.8
	c0-0.2,0.3-0.4,0.4-0.6c0.2,0.2,0.4,0.4,0.4,0.6C26.2,20.9,26.1,21.2,26.1,21.4z"/>
<path class="st0" d="M25.2,26.9c0-0.3-0.1-0.6,0-0.9c0.1-0.2,0.3-0.4,0.4-0.6c0.2,0.2,0.4,0.3,0.4,0.5c0.1,0.6,0.1,1.2,0,1.8
	c0,0.2-0.3,0.4-0.4,0.5c-0.1-0.2-0.4-0.4-0.4-0.6C25.2,27.5,25.2,27.2,25.2,26.9z"/>
<path class="st0" d="M2.5,25.3c0-0.3,0-0.7,0-1c0-0.2,0.3-0.4,0.4-0.4c0.2,0,0.5,0.2,0.5,0.4c0.1,0.7,0.1,1.3,0,2
	c0,0.2-0.3,0.3-0.4,0.5c-0.1-0.2-0.4-0.3-0.4-0.5C2.4,25.9,2.5,25.6,2.5,25.3C2.5,25.3,2.5,25.3,2.5,25.3z"/>
<path class="st0" d="M31.9,16.1c0,0.3,0.1,0.7,0,1c0,0.2-0.3,0.3-0.4,0.5c-0.1-0.2-0.4-0.3-0.4-0.5c-0.1-0.6-0.1-1.3,0-1.9
	c0-0.2,0.3-0.3,0.5-0.5c0.1,0.2,0.4,0.3,0.4,0.5C32,15.4,31.9,15.8,31.9,16.1C31.9,16.1,31.9,16.1,31.9,16.1z"/>
<path class="st0" d="M6.2,25.2c0,0.3,0.1,0.7,0,1c0,0.2-0.3,0.3-0.4,0.5c-0.1-0.2-0.4-0.3-0.4-0.5c-0.1-0.6-0.1-1.2,0-1.8
	c0-0.2,0.3-0.4,0.5-0.6C6,24,6.2,24.2,6.2,24.4C6.3,24.7,6.2,25,6.2,25.2C6.2,25.2,6.2,25.2,6.2,25.2z"/>
<path class="st0" d="M9.3,25.4c-0.2,0.4-0.4,1.2-0.6,1.2c-0.9-0.1-0.4-0.8-0.5-1.3c-0.1-0.3-0.1-0.7,0-1c0.1-0.2,0.3-0.4,0.4-0.5
	c0.1,0.2,0.4,0.4,0.4,0.6c0.1,0.3,0,0.6,0,1C9.2,25.3,9.3,25.4,9.3,25.4z"/>
<path class="st0" d="M26.1,16.1c0,0.3,0.1,0.7,0,1c0,0.2-0.3,0.3-0.4,0.5c-0.1-0.2-0.4-0.3-0.4-0.5c0-0.6-0.1-1.3,0-1.9
	c0-0.2,0.3-0.3,0.4-0.5c0.2,0.2,0.4,0.3,0.5,0.5C26.2,15.4,26.1,15.8,26.1,16.1C26.1,16.1,26.1,16.1,26.1,16.1z"/>
<path class="st0" d="M31.1,26.9c0-0.3,0-0.7,0-1c0-0.2,0.3-0.3,0.4-0.5c0.2,0.2,0.4,0.3,0.5,0.5c0.1,0.6,0.1,1.2,0,1.8
	c0,0.2-0.3,0.4-0.4,0.5c-0.1-0.2-0.4-0.4-0.4-0.6C31,27.5,31.1,27.2,31.1,26.9C31.1,26.9,31.1,26.9,31.1,26.9z"/>
</svg>
