<!-- Generator: Adobe Illustrator 21.0.2, SVG Export Plug-In  -->
<svg version="1.1"
	 xmlns="http://www.w3.org/2000/svg" xmlns:xlink="http://www.w3.org/1999/xlink" xmlns:a="http://ns.adobe.com/AdobeSVGViewerExtensions/3.0/"
	 x="0px" y="0px" width="41.5px" height="41.9px" viewBox="0 0 41.5 41.9" style="enable-background:new 0 0 41.5 41.9;"
	 xml:space="preserve">
<style type="text/css">
	.st0{fill:#5AB947;}
</style>
<defs>
</defs>
<path class="st0" d="M30.4,21.3c2.4,0,4.6,0,6.9,0c0,2.2,0,4.3,0,6.6c0.5,0,0.9,0,1.3,0c1.8,0.1,3,1.3,2.9,3c0,1.6-1.3,2.8-3,2.8
	c-0.4,0-0.7,0-1.2,0c0,1.9,0,3.8,0,5.6c0,0.7,0,1.4,0,2c0,0.2-0.3,0.4-0.4,0.6c-0.1-0.2-0.4-0.4-0.4-0.6c0-2.1,0-4.3,0-6.4
	c0-0.3,0-0.6,0-1c-10.2,0-20.4,0-30.7,0c0,1.6,0,3.2,0,4.8c0,0.9,0,1.8,0,2.7c0,0.6,0,0.6-0.8,0.5c0-2.7,0-5.3,0-8.1
	c-0.7,0-1.4,0-2,0c-1.8-0.1-3-1.2-3-2.9c0-1.6,1.2-2.9,3-2.9c0.6,0,1.2,0,1.9,0c0-2.2,0-4.3,0-6.6c2.4,0,4.8,0,7.2,0
	c0-0.4,0-0.7,0-0.9c0-2,0-4.1,0-6.1c0-2.8,1.1-4.5,3.7-5.5c1.9-0.8,1.9-0.8,3,0.9c0.8,1.1,1.6,2.3,2.4,3.5c1-1.4,2-2.8,2.9-4.2
	c0.4-0.7,0.9-0.9,1.6-0.6c1.1,0.6,2.3,1.1,3.2,1.9c1,0.8,1.5,2,1.5,3.4c0,2.1,0,4.3,0,6.4C30.4,20.5,30.4,20.8,30.4,21.3z
	 M25.7,21.3c0,2.3,0,4.4,0,6.5c0.1,0,0.2,0,0.3,0c0-0.6,0-1.2,0-1.8c0-5.1-0.5-10.2,1.6-15.1c0-0.1,0.1-0.1,0-0.2
	c0-0.1,0-0.4-0.1-0.4c-0.8-0.4-1.5-0.9-2.4-1.1c-0.2-0.1-0.7,0.6-0.9,1c-0.3,0.4-0.5,0.8-0.9,1.2c-1.2,1.5-2.2,3.1-1.8,5.2
	c0.1,0.6-0.2,0.7-0.9,0.5c0.9-2.9-1.1-4.8-2.5-6.9C17.4,9,17.4,9,16.1,9.6c-0.1,0-0.2,0.1-0.2,0.1c-0.7,0.3-0.9,0.7-0.7,1.5
	c1,3.1,1.9,6.3,1.5,9.6c0,0.2,0.1,0.3,0.1,0.5C19.7,21.3,22.6,21.3,25.7,21.3z M20.7,32.9c2.5,0,4.9,0,7.4,0c3.4,0,6.9,0,10.3,0
	c1.6,0,2.6-1.3,2.2-2.7c-0.3-1-1.1-1.5-2.5-1.5c-11.6,0-23.2,0-34.8,0c-0.2,0-0.5,0-0.7,0c-1.1,0.1-1.9,1-1.9,2.1
	c0,1.1,0.8,1.9,1.9,2.1c0.4,0,0.9,0,1.3,0C9.6,32.9,15.2,32.9,20.7,32.9z M16.7,22.2c0,2,0,3.8,0,5.7c2.7,0,5.4,0,8.1,0
	c0-1.9,0-3.8,0-5.6c-0.9,0-1.7,0-2.6,0c0,0.8,0,1.5,0,2.2c-1,0-2,0-2.9,0c0-0.8,0-1.5,0-2.2C18.4,22.2,17.6,22.2,16.7,22.2z
	 M36.5,22.2c-0.9,0-1.7,0-2.6,0c0,0.8,0,1.5,0,2.2c-1,0-2,0-3,0c0-0.8,0-1.5,0-2.2c-0.9,0-1.7,0-2.6,0c0,1.9,0,3.8,0,5.7
	c2.7,0,5.4,0,8.1,0C36.5,26,36.5,24.1,36.5,22.2z M8.4,24.4c0-0.8,0-1.5,0-2.2c-0.9,0-1.7,0-2.5,0c0,1.9,0,3.8,0,5.7
	c2.7,0,5.4,0,8.1,0c0-1.9,0-3.8,0-5.6c-0.9,0-1.7,0-2.6,0c0,0.8,0,1.5,0,2.2C10.4,24.4,9.5,24.4,8.4,24.4z M14.9,21.3
	c0,2.3,0,4.4,0,6.6c0.4,0,0.6,0,1,0c0-0.4,0-0.7,0-1c0-3,0-5.9,0-8.9c0-2.5-1.1-4.6-1.6-7.1c-0.9,0.9-1.3,1.8-1.3,2.9
	c0,1.6,0,3.2,0,4.8c0,0.9,0,1.7,0,2.7C13.6,21.3,14.2,21.3,14.9,21.3z M28.7,11.1c-0.1,0-0.2,0-0.3,0.1c-0.5,1.9-1.3,3.8-1.5,5.7
	c-0.2,3.5-0.1,7-0.1,10.6c0,0.1,0,0.1,0,0.2c0.1,0.1,0.2,0.2,0.3,0.3c0.1-0.1,0.3-0.2,0.3-0.4c0-0.3,0-0.7,0-1.1c0-1.7,0-3.4,0-5.2
	c0.7,0,1.4,0,2,0c0-2.8,0.1-5.6,0-8.3C29.5,12.4,29,11.7,28.7,11.1z M9.3,23.6c0.5,0,0.9,0,1.3,0c0-0.5,0-0.9,0-1.4
	c-0.5,0-0.8,0-1.3,0.1C9.3,22.7,9.3,23.1,9.3,23.6z M33,23.6c0-0.5,0-0.9,0-1.4c-0.4,0-0.8,0-1.2,0c0,0.5,0,0.9,0,1.4
	C32.3,23.6,32.6,23.6,33,23.6z M20.2,22.2c0,0.5,0,1,0,1.4c0.4,0,0.8,0,1.2,0c0-0.5,0-0.9,0-1.4C21,22.2,20.6,22.2,20.2,22.2z"/>
<path class="st0" d="M16.8,4.6c-0.5,0-0.9,0-1.3-0.1c-0.3-0.6,0-0.8,0.6-0.8c0.6,0.1,0.9-0.1,1.1-0.8c0.7-2.1,2.8-3.3,5-2.9
	c2.2,0.4,3.7,2.4,3.6,4.6c-0.1,2.2-1.8,4-4.1,4.2C19.4,9,17.5,7.6,17,5.4C16.9,5.1,16.9,4.9,16.8,4.6z M24.9,4.6c-2.4,0-4.8,0-7.1,0
	c0.1,2,1.6,3.4,3.5,3.4C23.1,8.1,24.7,6.7,24.9,4.6z M21.5,3.7c1.1,0,2.1,0,3.2,0c-0.4-1.8-1.9-2.9-3.7-2.8c-1.6,0.1-3,1.3-3.2,2.9
	c0.3,0,0.7,0,1,0c0-0.4,0.1-0.7,0.1-1c1.2-0.4,0.6,0.7,0.9,1c1,0.3,0.6-0.6,0.8-1C21.8,2.3,21.3,3.3,21.5,3.7z"/>
<path class="st0" d="M24.2,30.9c0,0.8-0.7,1.4-1.5,1.4c-0.9,0-1.5-0.7-1.4-1.6c0-0.8,0.7-1.4,1.5-1.4C23.6,29.4,24.2,30.1,24.2,30.9
	z M22.7,29.9c-0.3,0.4-0.7,0.7-0.6,0.9c0,0.3,0.4,0.5,0.6,0.7c0.2-0.2,0.6-0.4,0.6-0.6C23.3,30.6,23,30.4,22.7,29.9z"/>
<path class="st0" d="M30.4,32.3c-0.8,0-1.4-0.7-1.4-1.5c0-0.8,0.6-1.4,1.5-1.4c0.8,0,1.5,0.7,1.5,1.5C31.9,31.7,31.2,32.3,30.4,32.3
	z M30.5,29.9c-0.3,0.5-0.6,0.7-0.6,1c0,0.2,0.4,0.4,0.6,0.6c0.2-0.2,0.6-0.4,0.6-0.7C31.1,30.6,30.8,30.3,30.5,29.9z"/>
<path class="st0" d="M20.3,30.9c0,0.8-0.6,1.4-1.5,1.4c-0.8,0-1.5-0.6-1.5-1.4c0-0.8,0.7-1.5,1.5-1.5C19.7,29.4,20.3,30.1,20.3,30.9
	z M19.8,30.9c-0.4-0.3-0.7-0.6-0.9-0.6c-0.2,0-0.6,0.4-0.6,0.6c0.1,0.3,0.4,0.6,0.6,0.7C19,31.5,19.3,31.2,19.8,30.9z"/>
<path class="st0" d="M28.1,30.9c0,0.8-0.7,1.4-1.5,1.4c-0.8,0-1.5-0.7-1.5-1.5c0-0.8,0.7-1.4,1.5-1.4C27.5,29.4,28.1,30.1,28.1,30.9
	z M27.6,30.8c-0.5-0.3-0.7-0.6-1-0.6c-0.2,0-0.6,0.4-0.6,0.6c0.1,0.3,0.4,0.6,0.6,0.6C26.9,31.5,27.1,31.1,27.6,30.8z"/>
<path class="st0" d="M39.4,30.8c0,0.8-0.6,1.4-1.4,1.5c-0.8,0-1.5-0.6-1.5-1.4c0-0.8,0.6-1.5,1.5-1.5C38.8,29.4,39.4,30,39.4,30.8z
	 M38.8,30.9c-0.4-0.3-0.6-0.7-0.8-0.6c-0.3,0.1-0.5,0.4-0.7,0.6c0.2,0.2,0.4,0.6,0.7,0.6C38.2,31.5,38.4,31.1,38.8,30.9z"/>
<path class="st0" d="M7.2,32.3c-0.8,0-1.5-0.6-1.5-1.4c0-0.8,0.6-1.5,1.5-1.5c0.8,0,1.4,0.7,1.4,1.5C8.7,31.7,8.1,32.3,7.2,32.3z
	 M7.2,31.8c0.3-0.5,0.6-0.8,0.6-1.1c0-0.2-0.4-0.6-0.6-0.6c-0.2,0-0.6,0.4-0.6,0.6C6.6,31.1,6.9,31.3,7.2,31.8z"/>
<path class="st0" d="M16.5,30.8c0,0.8-0.6,1.5-1.4,1.5c-0.8,0-1.5-0.6-1.5-1.4c0-0.8,0.6-1.5,1.5-1.5C15.8,29.4,16.5,30,16.5,30.8z
	 M14.9,29.9c-0.3,0.5-0.6,0.7-0.6,1c0,0.2,0.5,0.6,0.6,0.5c0.3-0.1,0.6-0.4,0.6-0.7C15.6,30.6,15.3,30.3,14.9,29.9z"/>
<path class="st0" d="M4.8,30.9c0,0.8-0.6,1.4-1.5,1.4c-0.9,0-1.5-0.7-1.4-1.5c0-0.8,0.7-1.4,1.5-1.4C4.3,29.4,4.9,30,4.8,30.9z
	 M4.3,30.8c-0.5-0.3-0.8-0.6-1-0.6c-0.2,0-0.5,0.4-0.6,0.7c0,0.2,0.4,0.5,0.6,0.5C3.6,31.4,3.9,31.1,4.3,30.8z"/>
<path class="st0" d="M34.1,29.4c0.8,0,1.5,0.6,1.5,1.4c0,0.8-0.6,1.5-1.4,1.5c-0.9,0-1.5-0.6-1.5-1.4C32.6,30,33.3,29.4,34.1,29.4z
	 M35,30.9c-0.4-0.3-0.7-0.7-0.9-0.7c-0.3,0-0.6,0.4-0.7,0.6c0,0.1,0.3,0.6,0.6,0.6C34.3,31.5,34.6,31.2,35,30.9z"/>
<path class="st0" d="M12.6,30.9c0,0.8-0.6,1.4-1.5,1.4c-0.8,0-1.4-0.6-1.5-1.4c0-0.8,0.7-1.5,1.5-1.5C12,29.4,12.6,30,12.6,30.9z
	 M12.1,30.8c-0.4-0.3-0.7-0.6-0.9-0.6c-0.3,0.1-0.4,0.4-0.7,0.7c0.2,0.2,0.4,0.6,0.6,0.6C11.4,31.4,11.7,31.1,12.1,30.8z"/>
</svg>
