<!-- Generator: Adobe Illustrator 21.0.2, SVG Export Plug-In  -->
<svg version="1.1"
	 xmlns="http://www.w3.org/2000/svg" xmlns:xlink="http://www.w3.org/1999/xlink" xmlns:a="http://ns.adobe.com/AdobeSVGViewerExtensions/3.0/"
	 x="0px" y="0px" width="43.5px" height="41.8px" viewBox="0 0 43.5 41.8" style="enable-background:new 0 0 43.5 41.8;"
	 xml:space="preserve">
<style type="text/css">
	.st0{fill:#5AB947;}
</style>
<defs>
</defs>
<path class="st0" d="M21,7.4c0-2.6,0-5,0-7.4c2.5,0,5,0,7.6,0c0,8.3,0,16.5,0,24.8c0.5,0,0.9,0,1.4,0c0-8.3,0-16.5,0-24.8
	c2.6,0,5.1,0,7.7,0c0,8.3,0,16.5,0,24.9c1.2,0,2.3,0,3.4,0c0,5.4,0,10.7,0,16.1c0.6,0,1.1,0,1.7,0c0.6,0,0.8,0.2,0.6,0.8
	c-14.4,0-28.8,0-43.3,0C-0.1,41.3-0.1,41,0.6,41c0.6,0,1.2,0,2,0c0-11.2,0-22.3,0-33.6C8.8,7.4,14.8,7.4,21,7.4z M40.3,25.8
	c-11,0-21.9,0-32.9,0c0,5.1,0,10.1,0,15.1c11,0,22,0,32.9,0C40.3,35.9,40.3,30.9,40.3,25.8z M21,14c-4.9,0-9.7,0-14.5,0
	c0-1.2,0-2.3,0-3.5c4.8,0,9.6,0,14.4,0c0-0.8,0-1.5,0-2.2c-5.9,0-11.7,0-17.5,0c0,10.9,0,21.7,0,32.6c1,0,2,0,3,0
	c0-5.4,0-10.7,0-16.1c4.9,0,9.7,0,14.5,0c0-2,0-3.9,0-5.9c-4.8,0-9.6,0-14.5,0c0-1.2,0-2.3,0-3.5c4.8,0,9.7,0,14.5,0
	C21,15,21,14.6,21,14z M36.8,24.8c0-6.1,0-12.1,0-18.2c-2,0-3.9,0-5.9,0c0,6.1,0,12.1,0,18.2C32.9,24.8,34.8,24.8,36.8,24.8z
	 M27.8,6.7c-2,0-3.9,0-5.8,0c0,6.1,0,12.1,0,18.1c2,0,3.9,0,5.8,0C27.8,18.8,27.8,12.7,27.8,6.7z M21,13.2c0-0.6,0-1.2,0-1.8
	c-4.6,0-9.1,0-13.6,0c0,0.6,0,1.2,0,1.8C11.9,13.2,16.4,13.2,21,13.2z M21,16.4c-4.6,0-9.1,0-13.7,0c0,0.6,0,1.1,0,1.7
	c4.6,0,9.1,0,13.7,0C21,17.5,21,17,21,16.4z M31,3.6c2,0,3.9,0,5.9,0c0-1,0-1.9,0-2.8c-2,0-3.9,0-5.9,0C31,1.8,31,2.7,31,3.6z
	 M21.9,3.6c2,0,3.9,0,5.8,0c0-1,0-1.9,0-2.8c-2,0-3.9,0-5.8,0C21.9,1.8,21.9,2.7,21.9,3.6z M36.8,4.6c-2,0-3.9,0-5.8,0
	c0,0.4,0,0.8,0,1.1c2,0,3.9,0,5.8,0C36.8,5.3,36.8,5,36.8,4.6z M21.9,5.7c2,0,3.9,0,5.8,0c0-0.4,0-0.8,0-1.2c-2,0-3.9,0-5.8,0
	C21.9,5,21.9,5.3,21.9,5.7z"/>
<path class="st0" d="M12.2,37c0-2.4,0-4.8,0-7.3c2.4,0,4.9,0,7.3,0c0,2.4,0,4.8,0,7.3C17.1,37,14.7,37,12.2,37z M15.4,36.2
	c0-0.8,0-1.6,0-2.4c-0.8,0-1.5,0-2.3,0c0,0.8,0,1.6,0,2.4C13.9,36.2,14.6,36.2,15.4,36.2z M18.7,33.8c-0.8,0-1.6,0-2.4,0
	c0,0.8,0,1.6,0,2.3c0.8,0,1.6,0,2.4,0C18.7,35.4,18.7,34.6,18.7,33.8z M13.1,32.9c0.8,0,1.6,0,2.3,0c0-0.8,0-1.6,0-2.3
	c-0.8,0-1.6,0-2.3,0C13.1,31.4,13.1,32.1,13.1,32.9z M16.4,30.5c0,0.8,0,1.6,0,2.3c0.8,0,1.6,0,2.3,0c0-0.8,0-1.6,0-2.3
	C17.9,30.5,17.2,30.5,16.4,30.5z"/>
<path class="st0" d="M37.3,37c-2.5,0-4.8,0-7.3,0c0-2.4,0-4.9,0-7.3c2.4,0,4.8,0,7.3,0C37.3,32.1,37.3,34.5,37.3,37z M36.5,36.2
	c0-0.9,0-1.6,0-2.3c-0.8,0-1.6,0-2.3,0c0,0.8,0,1.6,0,2.3C35,36.2,35.7,36.2,36.5,36.2z M34.1,30.5c0,0.8,0,1.6,0,2.4
	c0.8,0,1.6,0,2.4,0c0-0.8,0-1.6,0-2.4C35.7,30.5,35,30.5,34.1,30.5z M30.9,30.5c0,0.8,0,1.6,0,2.4c0.8,0,1.6,0,2.3,0
	c0-0.8,0-1.6,0-2.4C32.4,30.5,31.7,30.5,30.9,30.5z M33.2,33.8c-0.7,0-1.3,0-2,0c-0.2,0-0.4,0.2-0.4,0.4c0,0.7,0,1.3,0,2
	c0.9,0,1.6,0,2.4,0C33.2,35.4,33.2,34.6,33.2,33.8z"/>
<path class="st0" d="M21.1,37c0-2.4,0-4.8,0-7.3c2.4,0,4.8,0,7.3,0c0,2.4,0,4.8,0,7.3C26,37,23.6,37,21.1,37z M24.3,36.2
	c0-0.8,0-1.6,0-2.3c-0.8,0-1.6,0-2.4,0c0,0.8,0,1.6,0,2.3C22.8,36.2,23.5,36.2,24.3,36.2z M22,32.9c0.8,0,1.6,0,2.4,0
	c0-0.8,0-1.6,0-2.4c-0.8,0-1.6,0-2.4,0C22,31.3,22,32.1,22,32.9z M27.6,32.9c0-0.8,0-1.6,0-2.3c-0.8,0-1.6,0-2.3,0
	c0,0.8,0,1.5,0,2.3C26,32.9,26.8,32.9,27.6,32.9z M27.6,33.8c-0.8,0-1.5,0-2.3,0c0,0.8,0,1.6,0,2.3c0.8,0,1.6,0,2.3,0
	C27.6,35.4,27.6,34.6,27.6,33.8z"/>
</svg>
