<!-- Generator: Adobe Illustrator 21.0.2, SVG Export Plug-In  -->
<svg version="1.1"
	 xmlns="http://www.w3.org/2000/svg" xmlns:xlink="http://www.w3.org/1999/xlink" xmlns:a="http://ns.adobe.com/AdobeSVGViewerExtensions/3.0/"
	 x="0px" y="0px" width="30px" height="33.1px" viewBox="0 0 30 33.1" style="enable-background:new 0 0 30 33.1;"
	 xml:space="preserve">
<style type="text/css">
	.st0{fill:#5AB947;}
</style>
<defs>
</defs>
<path class="st0" d="M26.8,3.5c1.1,1.1,2,2,2.9,2.9c0.5,0.5,0.1,0.9-0.2,1.2c-0.3,0.3-0.7,0.7-1.2,0.3c-0.3-0.2-0.5-0.4-0.9-0.8
	c-0.4,0.4-0.7,0.8-1,1.1c5.9,7.6,3.6,15.4,0,19.6c-4.3,5-11.3,6.6-17.3,4c-6.3-2.7-9.6-9-9-14.9C0.8,9.5,5.5,4.8,13.7,3.1
	c0-0.7,0-1.4,0-2.1c0-0.9,0.2-1,1.3-1c1,0,1.1,0.1,1.2,0.9c0,0.7,0,1.4,0,2.2c3.5,0.4,6.6,1.8,9.2,4.3c0.4-0.4,0.8-0.7,1.1-1.1
	c-0.4-0.5-0.7-0.9-1.1-1.3C25.9,4.5,26.3,4.1,26.8,3.5z M28.7,18c0-7.6-6.2-13.7-13.8-13.7c-7.6,0-13.7,6.2-13.7,13.8
	c0,7.5,6.3,13.8,13.8,13.7C22.6,31.8,28.7,25.6,28.7,18z"/>
<path class="st0" d="M15.6,12c0,1,0,2.1,0,3.1c0,0.9-0.1,1.8,0.8,2.5c0.7,0.6,0.5,1.7-0.2,2.4c-0.4,0.3-0.6,0.6-0.7,1.2
	c0,0.2-0.4,0.5-0.6,0.5c-0.2,0-0.6-0.3-0.6-0.5c0-0.5-0.3-0.8-0.7-1.2c-0.9-0.8-0.9-1.9,0-2.7c0.5-0.5,0.6-0.9,0.6-1.6
	c0-2.5,0-5,0-7.5c0-1.1,0.2-1.5,0.6-1.4c0.8,0.2,0.6,0.9,0.6,1.4C15.6,9.5,15.6,10.8,15.6,12z"/>
</svg>
