<svg xmlns="http://www.w3.org/2000/svg" width="36.2" height="20.5" viewBox="0 0 36.2 20.5"><style>.st0{fill:#fff}</style><g id="nD6sRP_2_"><path class="st0" d="M36.2 17.4l-1.8.3c-.6 1.7-1.7 2.9-3.8 2.9-1.8-.1-2.9-1.2-3.5-2.9H9c-.6 1.7-1.7 2.9-3.6 2.9-2 0-3.1-1.2-3.6-2.9-.6-.1-1.2-.2-1.7-.3-.1-.5-.1-.9-.1-1.3V1.5.9C0 .2.3 0 .9 0H28c1.5 0 1.5 0 2 1.4.8 2.3 1.5 4.6 2.3 6.9.2.6.5 1 1.2 1.2.7.2 1.4.4 2.1.7.3.1.7.5.7.7-.1 2.1-.1 4.2-.1 6.5zM9.3 16.2h12.4v-5.9H1.4c-.3 1.7-.2 5 .2 6 .4-.7.8-1.4 1.4-2 .6-.7 1.4-1 2.3-1 .9 0 1.8.2 2.4.8.6.6 1 1.4 1.6 2.1zM23 9h8.1c-.9-2.6-1.7-5.1-2.6-7.8-1.9 0-3.7-.1-5.5 0V9zm0 7.3h4.1c.1-.2.2-.3.2-.5.6-1.6 1.8-2.5 3.4-2.5 1.6 0 2.8.8 3.4 2.4.1.2.3.4.5.7.4-1 .4-3.6.1-5.2-1.1-.3-2.3-.8-3.5-.8-2.5-.1-5.1 0-7.6 0-.2 0-.4.1-.7.1.1 1.8.1 3.7.1 5.8zM21.7 1.2c-2 0-4-.1-5.9 0v7.7h5.9V1.2zM8.5 9h5.9V1.3H8.5V9zM7.2 1.3H1.3V9h5.9V1.3zm26 15.6c0-1.3-1.1-2.4-2.4-2.4-1.3 0-2.4 1.1-2.4 2.4 0 1.4 1.1 2.5 2.5 2.4 1.3 0 2.3-1.1 2.3-2.4zM5.4 19.3c1.3 0 2.4-1.1 2.4-2.4 0-1.4-1.1-2.5-2.5-2.4C4 14.5 3 15.6 3 17c.1 1.3 1.1 2.3 2.4 2.3z"/><path class="st0" d="M30.8 16.1c.3.4.6.6.5.8 0 .2-.3.4-.5.6-.2-.2-.5-.3-.5-.6 0-.2.2-.4.5-.8zM5.4 17.7c-.2-.4-.5-.6-.5-.8 0-.2.3-.4.5-.5.2.2.5.4.5.6.1.1-.2.3-.5.7z"/></g></svg>