<svg xmlns="http://www.w3.org/2000/svg" width="36.8" height="23.9" viewBox="0 0 36.8 23.9"><style>.st0{fill:#5ab947}</style><path class="st0" d="M11.7 20.1c-.7 2.5-2.1 3.8-4 3.7-1.9 0-3.2-1.3-3.8-3.8H2.4C.9 20 .1 19.1 0 17.6v-.4V2.8C0 .8.8 0 2.9 0h26.4c1.5 0 2.7.5 3.6 1.7.9 1.2 1.9 2.3 2.9 3.5.7.8 1 1.7 1 2.7v9.7c0 1.7-.9 2.5-2.6 2.5h-1.5c-.8 2.6-2.1 3.8-3.9 3.8-1.8 0-3.2-1.3-3.9-3.7-4.4-.1-8.8-.1-13.2-.1zm23.7-7h-2c-.5 0-.9-.1-.9-.7s.5-.6.9-.6h1.9v-1.5h-34v1.4c.5.1 1 0 1.4.2.3.1.5.5.5.7 0 .2-.3.4-.5.5-.4.1-.8.1-1.4.1v4.7c0 .6.4.9.9.9h1.9c2-3.2 5.2-3.3 7.3-.1h13.8c2.3-3.2 4.7-3.2 7.2 0h2.1c.6 0 .9-.3.9-.9v-4.7zM25.1 1.4v7.5h10.3c.2-1 .2-1.9-.5-2.7-1.1-1.3-2.2-2.7-3.3-4-.3-.4-.8-.7-1.3-.7-1.7-.2-3.5-.1-5.2-.1zm-7.9 0v7.4h6.4V1.4h-6.4zM7.9 8.9c.1-2.5 0-4.9 0-7.5H2.6c-1.1 0-1.3.2-1.3 1.3V8c0 .3.1.6.1.9h6.5zm1.4-.1h6.4V1.4H9.3v7.4zm21.9 11.3c0-1.4-1-2.4-2.5-2.4-1.4 0-2.4 1-2.4 2.4s1 2.4 2.5 2.4c1.4 0 2.4-1 2.4-2.4zM7.7 17.7c-1.4 0-2.4 1-2.4 2.5 0 1.4 1.1 2.4 2.5 2.4s2.4-1.1 2.4-2.5c0-1.5-1-2.4-2.5-2.4z"/><path class="st0" d="M20.9 13.4h-1.1v-1.8c.3 0 .7-.1 1.1-.2v2zM23.7 13.5v-1.9h1.2v1.8c-.3 0-.7.1-1.2.1z"/></svg>