<svg xmlns="http://www.w3.org/2000/svg" width="31" height="24.3" viewBox="0 0 31 24.3"><style>.st0{fill:#5ab947}</style><path class="st0" d="M15.5 0C21.1.1 26 1.9 30.3 5.6c.2.2.5.4.6.6.1.2.1.6 0 .8-.2.4-.6.3-.9.1-.2-.1-.4-.3-.6-.5-8.2-7-19.6-7.1-27.8-.1l-.5.5c-.3.3-.7.4-1 0-.1-.2 0-.6.1-.9.1-.3.4-.4.6-.6C5 1.9 9.9.1 15.5 0z"/><path class="st0" d="M16.5 6.5c2.9 0 6.3 1.3 9.2 3.8.4.3 1 .6.6 1.3-.3.4-.6.3-1.4-.3-5.8-4.7-13.2-4.7-19 0-.4.3-.7.9-1.3.4-.4-.3-.3-.7.4-1.4 2.8-2.4 6.7-3.8 11.5-3.8zM15.6 13c2 0 3.9.7 5.5 1.9.2.2.5.4.6.6.1.2.1.5-.1.7-.1.1-.5.2-.7.2-.3-.1-.5-.3-.8-.5-3-2.1-6.6-2.1-9.6 0-.2.2-.5.4-.7.5-.2.1-.6 0-.7-.1-.1-.2-.1-.6 0-.8.1-.2.4-.4.7-.6 1.8-1.3 3.6-1.9 5.8-1.9zM18.2 21.6c0 1.5-1.3 2.7-2.8 2.7-1.4 0-2.6-1.3-2.6-2.7 0-1.5 1.3-2.7 2.8-2.7 1.4.1 2.6 1.3 2.6 2.7zm-1.4.1c0-.7-.5-1.3-1.2-1.4-.7-.1-1.4.6-1.4 1.3 0 .7.6 1.3 1.3 1.3.6.1 1.3-.5 1.3-1.2z"/></svg>