<svg xmlns="http://www.w3.org/2000/svg" width="34.9" height="38.6"><style>.st0{fill:#5ab947}</style><g id="Слой_4_1_"><path class="st0" d="M6.4 26.4H3.6c-2.1 0-3.6-1.5-3.6-3.6v-7.6c0-2.2 1.5-3.7 3.7-3.7h2.7V3.7c0-1.6.9-2.9 2.4-3.4.4-.2.8-.3 1.2-.3h13.7c.1 0 .3.1.4.2l10.6 10.6c.1.1.2.3.2.5V35c0 2-1.6 3.6-3.6 3.6H9.9c-2 0-3.6-1.5-3.6-3.6v-8.1c.1-.2.1-.4.1-.5zm1.4-15h12.7c.4 0 .7 0 1.1.1 1.5.4 2.6 1.8 2.6 3.4v7.5c0 .5 0 1.1-.2 1.6-.5 1.5-1.8 2.4-3.5 2.4H7.8v8.4c0 1.5.9 2.3 2.3 2.3h21.1c1.3 0 2.2-.9 2.2-2.2V12.1h-7.1c-2.1 0-3.6-1.6-3.6-3.6V1.4H10.1c-1.4 0-2.3.9-2.3 2.3v7.7zm24.7-.7l-8.3-8.3v6.1c0 1.3.9 2.1 2.2 2.2h6.1z" id="Слой_3_1_"/></g><g id="Слой_2_1_"><path class="st0" d="M6.4 26.4H3.6c-2.1 0-3.6-1.5-3.6-3.6v-7.6c0-2.2 1.5-3.7 3.7-3.7h2.7V3.7c0-1.6.9-2.9 2.4-3.4.4-.2.8-.3 1.2-.3h13.7c.1 0 .3.1.4.2l10.6 10.6c.1.1.2.3.2.5V35c0 2-1.6 3.6-3.6 3.6H9.9c-2 0-3.6-1.5-3.6-3.6v-8.1c.1-.2.1-.4.1-.5zm1.4-15h12.7c.4 0 .7 0 1.1.1 1.5.4 2.6 1.8 2.6 3.4v7.5c0 .5 0 1.1-.2 1.6-.5 1.5-1.8 2.4-3.5 2.4H7.8v8.4c0 1.5.9 2.3 2.3 2.3h21.1c1.3 0 2.2-.9 2.2-2.2V12.1h-7.1c-2.1 0-3.6-1.6-3.6-3.6V1.4H10.1c-1.4 0-2.3.9-2.3 2.3v7.7zm24.7-.7l-8.3-8.3v6.1c0 1.3.9 2.1 2.2 2.2h6.1z"/><text transform="translate(3.617 22.95)" font-size="12" font-family="MyriadPro-Regular" fill="#fff">JPG</text></g></svg>