<svg xmlns="http://www.w3.org/2000/svg" width="22.8" height="29" viewBox="0 0 22.8 29"><style>.st0{fill:#fff}</style><path class="st0" d="M20.8 27c0 .2-.1.4-.1.5-.1 1.2-.4 1.4-1.5 1.4h-18c-.8-.1-1.1-.4-1.2-1.2v-.8-23-.6C.1 2.4.3 2.2 1.2 2h.7c.1-.1.1-.2.1-.3C2.2.1 2.3 0 3.9 0H21.8c.6.1.9.4 1 1v24.6c-.1 1-.3 1.2-1.2 1.3-.3 0-.5.1-.8.1zm-19.7.9c6.2.1 12.3 0 18.4 0 .3-1.6.2-19.7-.1-20.7h-2.3c-1.3 0-1.6-.3-1.6-1.6V3.2C13.7 3 2 3.1 1.1 3.4v24.5zM3.2 1.1c-.1.6-.1.9.5 1h11.9c.7 0 1.3.2 1.8.8.8.8 1.5 1.6 2.4 2.4.7.6 1 1.4 1 2.4v18.2c.6.2 1 .2 1-.4v-.6V2.4c0-.3-.1-.7-.1-1.1-6.2-.2-12.3-.2-18.5-.2zm15.6 5c0-.1.1-.2.1-.3l-2.3-2.3v1.3c0 .4 0 .7.1 1.2.4 0 .8.1 1.2.1.3.1.6.1.9 0z"/><path class="st0" d="M10.3 22.8H5.4c-.4 0-1.1.1-1.1-.5 0-.7.7-.5 1.1-.5h10.1c.4 0 1-.1 1 .4 0 .7-.6.6-1.1.6h-5.1zM10.2 19.7H5.4c-.3 0-.7-.1-1-.2-.1 0-.2-.3-.2-.4 0-.1.2-.3.3-.4.3-.1.6-.1.9-.1h9.9c.4 0 1.1-.2 1.1.5s-.7.5-1.2.6h-5zM10.4 15.5h5.4c.3 0 .8 0 .7.5 0 .2-.4.5-.6.5h-11c-.2 0-.6-.3-.6-.5-.1-.5.4-.5.7-.5h5.4zM10.4 12.4h5.5c.2.1.4.3.6.4-.2.2-.4.4-.6.5-.2.1-.4 0-.6 0H5.5c-.3 0-.6 0-.9-.1-.2-.1-.3-.3-.3-.5 0-.1.2-.4.4-.4.3-.1.6-.1.9-.1 1.5.2 3.2.2 4.8.2zM7.3 9.3h2.3c.2 0 .6.2.7.4.1.4-.3.6-.7.6H4.7c-.2-.1-.3-.3-.5-.5.2-.2.3-.4.5-.5h2.6z"/></svg>