<svg xmlns="http://www.w3.org/2000/svg" width="41.2" height="26.6" viewBox="0 0 41.2 26.6"><style>.st0{fill:#fff}</style><path class="st0" d="M32.6 16.5c.9 2.3 0 4.3-2.9 4.3-1.1 2.2-1.6 2.4-3.9 2.2-1.2 2.4-2.5 2.2-4.4 1.7-.6 1.2-1.5 1.9-2.9 1.8-1.4-.1-2-1.2-3-2-.2.2-.5.3-.7.5-1.4 1-3 .8-4-.7-.3-.4-.6-.6-1.1-.7-1-.1-1.7-.7-2-1.6-.2-.5-.6-.7-.9-1-1.2-1-2.3-2-3.3-3.1-.8-.8-.5-1.9.1-2.9.2-.3.5-.5.7-.8.7-.6.7-1.2.2-2l-.5-.5c-.2-.2-.5-.5-.8-.7-.3.3-.6.5-1 .8C1.5 11 .8 10.2 0 9.4l.8-.8c.5.5 1 .9 1.3 1.2l7.6-7.6c-.2-.4-.6-.9-1.1-1.4.3-.3.5-.6.8-.8l2.4 2.4c-.1.2-.4.5-.6.8.1.1.1.2.2.3.9.8 1.8 1 3 .6 1.5-.6 3.1-1 4.7-1.5 1.3-.4 2.5-.3 3.6.2.7.3 1.3.6 2 .9 1 .4 2.1.5 3.2.3.7-.2 1.4-.3 1.9-1.1.4-.8 1.2-1.4 1.8-2.1.4.4.7.6 1.1.9-.5.5-.9 1-1.2 1.4l7.6 7.6c.4-.3.8-.7 1.3-1.2.3.3.6.5.9.8-.8.8-1.6 1.5-2.4 2.2-.8-.3-1.4-.2-1.9.5-1.2 1.6-2.7 2.7-4.4 3.5zm-8.1-2.2c1.5 1.5 2.9 2.9 4.4 4.3.3.3.6.6 1 .8.6.3 1.1 0 1.5-.4.4-.5.5-1 .1-1.5-.2-.3-.5-.5-.7-.8-2.3-2.3-4.6-4.6-7-6.9-1.5-1.5-1.5-1.5-3.5-1.1-1.3.1-2.7.3-4.1.5-2.1.2-3.9-.4-5.3-2.1-.5-.7-1-1.4-.2-2.3-.3-.2-.5-.4-.6-.5-1.9 1.9-3.8 3.8-5.7 5.8.9.9 1.9 1.8 1.9 3.1.9.6 1.6 1.1 2.3 1.5.1.1.4.3.6.3 1 .3 1.7.8 2 1.8.1.3.4.6.7.7.9.3 1.4.9 1.8 1.8.1.3.4.5.7.7 1.2.5 1.8 1.4 1.8 2.7 0 .3.1.6.2.8.5.6 1 1.1 1.6 1.5.5.4 1.1.4 1.6-.1.6-.6.7-1.2.1-1.9-.6-.6-1.2-1.2-1.8-1.9.4-.3.6-.6 1.1-1 .4.5.7.9 1.1 1.3.7.7 1.4 1.5 2.2 2.2.6.5 1.3.4 1.8-.1s.5-1.1 0-1.7l-.9-.9-2.5-2.5c.4-.3.6-.6 1-.9l2.5 2.5c.6.6 1.1 1.2 1.8 1.7.7.6 1.3.6 1.8 0 .6-.6.6-1.2 0-1.9l-.9-.9-3.3-3.3c.3-.7.6-1 .9-1.3zM11.9 6.2c1.2 1.4 2.5 1.9 4 1.7 1.9-.2 3.8-.5 5.7-.8.8-.1 1.4 0 2.1.6l6.9 6.9c.3.3.6.6.9.8 1.5-.6 2.8-1.4 3.8-2.6.5-.6 1.1-1.2 1.5-1.7-2.1-2.1-4.2-4.3-6.5-6.6-.3.1-.6.2-1 .3-1.9.6-3.8.6-5.7-.2-.5-.2-1-.4-1.4-.6-1.1-.5-2.1-.6-3.2-.2-1.6.6-3.3 1-4.9 1.5-.6.3-1.3.6-2.2.9zM13 24.3c.7 0 1.8-1 1.9-1.7.1-.7-.5-1.4-1.5-1.4-.7 0-1-.3-1-1 0-1-.4-1.3-1.4-1.4-.8 0-1-.3-1.1-1.1 0-.9-.5-1.3-1.3-1.3-.7 0-1-.2-1.3-.8-.3-.6-.8-.8-1.5-.7-.6.2-1.4 1.2-1.5 1.7 0 .6.3 1.2 1.1 1.4.5.1.8.4.9.9.2.7.6 1 1.3 1 .8 0 1 .4 1 1.1 0 .9.7 1.4 1.6 1.3 1-.1 1-.1 1.3.9.4.8.9 1.1 1.5 1.1z"/><path class="st0" d="M2.2 9.1c-.3-.4-.5-.7-.8-1.1.2-.2.5-.5.8-.9l1 1c-.3.3-.5.6-1 1zM38.9 8c.3.4.6.6.9 1-.3.3-.6.6-1 1.1-.3-.4-.6-.6-.9-.9.4-.5.6-.8 1-1.2z"/></svg>