<svg xmlns="http://www.w3.org/2000/svg" width="27.6" height="13" viewBox="0 0 27.6 13"><style>.st0{fill:#5ab947}</style><path class="st0" d="M27.6 6.4v.8C27.2 12 22 14.6 18 12c-1.1-.7-1.8-1.7-2.3-2.9-.6-1.7-.6-3.4-.1-5.1.6-1.9 1.8-3.1 3.7-3.7 1.3-.4 2.6-.5 3.9-.1 2.8.7 4.5 3.1 4.4 6.2zm-1.7.1c-.1-.8-.2-1.6-.4-2.3-.6-1.8-1.9-2.8-3.9-2.8-2.1 0-3.5.8-4.2 2.6-.7 1.7-.6 3.5.1 5.2.7 1.6 2.2 2.6 4 2.5 1.8-.1 3.3-1 3.8-2.7.4-.9.5-1.7.6-2.5zM13.2 3.7c-.3.1-.5.1-.7.1h-.7c-.3-.6-.6-1.2-1-1.7-.9-1-3.4-1.1-4.5-.2-.9.8-.9 2 .2 2.6.4.3.8.4 1.3.5 1 .3 2.1.5 3.1.8 1.6.5 2.5 1.5 2.6 3 .1 1.6-.7 3-2.2 3.6-1.9.8-3.8.7-5.6-.1-1.4-.7-2-1.9-2.2-3.6.5-.1 1-.1 1.6-.2.1.2.2.5.3.7.4 1.6 1.4 2.3 2.9 2.4.7 0 1.5-.1 2.3-.4.9-.3 1.4-1.2 1.3-2.2-.1-1-.7-1.5-1.5-1.7-1-.1-1.8-.3-2.6-.5S6.2 6.4 5.5 6c-1.8-1-2.1-3.3-.6-4.7.2-.2.4-.3.6-.5 1.6-1.1 4.6-1 6.2.1.9.6 1.4 1.5 1.5 2.8zM0 .4h1.3c.3.9.3 10.4.1 12.1H0V.4z"/></svg>