<svg xmlns="http://www.w3.org/2000/svg" width="27.9" height="28.4" viewBox="0 0 27.9 28.4"><style>.st0{fill:#5ab947}</style><path class="st0" d="M22.6 5.2h-1.4V3.1v-.7c-.1-1.1-.3-1.3-1.4-1.1-.9.2-1.8.5-2.6.7-3.9 1.1-7.8 2.1-11.6 3.2-1.3.3-2.5.8-3.4 1.8 1.6-.7 3.2-.4 4.8-.4h16.4c2.2 0 4.4 2 4.4 4.4-.1 4.5 0 9 0 13.5 0 2.4-1.6 4-4 4H4c-2.4 0-4-1.6-4-4V9.7c0-2.4 1-4.1 3.2-4.9C5 4 6.8 3.5 8.7 3 12 2 15.3 1.1 18.6.2c.6-.1 1.2-.2 1.9-.2 1.1 0 1.8.5 1.9 1.6.1 1.1.1 2.3.2 3.6zm-8.7 21.9h9.9c1.8 0 2.7-.9 2.7-2.7V10.8c0-1.9-1-2.9-2.9-2.9H4.3c-1.9 0-2.9 1.1-2.9 2.9v13.6c0 1.8.8 2.7 2.7 2.7h9.8z"/><path class="st0" d="M24.5 17.5c0 .9-.8 1.6-1.7 1.6-.9 0-1.7-.8-1.6-1.7 0-.9.8-1.6 1.7-1.6.9.1 1.6.8 1.6 1.7z"/></svg>