<svg xmlns="http://www.w3.org/2000/svg" width="26.8" height="30.5" viewBox="0 0 26.8 30.5"><style>.st0{fill:#fff}</style><path class="st0" d="M26.8 15.1v11.6c0 .5 0 1-.1 1.4-.3 1.5-1.5 2.3-3.1 2.3H3.2c-2.1 0-3.1-1-3.1-3.1C0 21 0 14.6 0 8.2V3.4C0 1.2 1.2 0 3.3 0h20.2c2.2 0 3.2 1 3.2 3.2.1 4 0 8 .1 11.9-.1 0-.1 0 0 0zM.9 23.3c0 1.5-.1 3 0 4.5.1 1 .9 1.6 1.9 1.7H24.4c.7-.1 1.3-.6 1.4-1.3.2-1.6.1-3.2.1-4.9H15.2c-1.7 2.3-2.9 2.3-4.6 0H6.8c-.5.9-1.1 1.7-2.3 1.7-1.2 0-1.7-.8-2.2-1.7H.9zM12.8 8H.9v6.7h1.6c.5-1 1.1-1.7 2.3-1.7 1.1 0 1.7.9 2.2 1.7.4 0 .8 0 1.2-.1.4-1 1.1-1.7 2.2-1.7s1.8.8 2.1 1.7h1.6c1.6-2.3 2.9-2.3 4.6 0h1.1c1.6-2.3 2.9-2.3 4.6 0 .4 0 .9-.1 1.4-.1V7.8h-2.9c-.5.9-1.1 1.7-2.3 1.7-1.2 0-1.7-.9-2.2-1.7-.4 0-.8 0-1.2.1-1.2 2.4-3.3 2.2-4.4.1zM.9 6.8H13c.2-.3.3-.5.5-.8 1-1.2 2.6-1.2 3.5.1.5.7.9.9 1.7.7 1.3-2.3 3.2-2.2 4.6.1h1.2c.5 0 .9 0 1.5-.1 0-1.4.1-2.6 0-3.9-.1-1.2-.9-1.8-2-1.9H3.3c-.3 0-.6 0-.9.1-.9.2-1.5.7-1.5 1.6C.8 4 .9 5.4.9 6.8zm13.2 9h-1.7c-.4 1-1.1 1.7-2.2 1.7s-1.7-.9-2.2-1.8c-.4 0-.8 0-1.1.1-1.6 2.3-2.9 2.3-4.6 0H.9v6.3h1.6c1.2-2.3 3.3-2.3 4.5 0h3.8c.5-.9 1.1-1.7 2.2-1.7 1.2 0 1.8.8 2.3 1.8 3.6-.1 7.1.1 10.6-.1v-6.3h-1.6c-.5.9-1.1 1.7-2.2 1.7s-1.7-.8-2.2-1.7h-1.2c-1.4 2.4-3.4 2.3-4.6 0zM10.2 14c-.7 0-1.2.5-1.2 1.1 0 .7.6 1.3 1.3 1.3.7 0 1.3-.6 1.2-1.2.1-.6-.6-1.2-1.3-1.2zm-4.3 1.3c0-.7-.7-1.3-1.4-1.3s-1.2.6-1.2 1.2c.1.7.7 1.3 1.4 1.2.7.1 1.3-.5 1.2-1.1zm17.5 0c0-.7-.6-1.3-1.3-1.3-.6 0-1.2.5-1.2 1.1 0 .7.7 1.4 1.4 1.4.6 0 1.1-.5 1.1-1.2zm-10.5 6.2c-.7 0-1.2.4-1.2 1-.1.7.5 1.3 1.2 1.4.7.1 1.3-.4 1.3-1.1 0-.7-.6-1.3-1.3-1.3zm-7 1.3c0-.7-.6-1.3-1.3-1.3-.7 0-1.3.5-1.2 1.2 0 .7.7 1.3 1.4 1.2.6 0 1.2-.5 1.1-1.1zM16.4 7.5c0-.7-.5-1.3-1.3-1.4-.7 0-1.3.5-1.3 1.1 0 .7.6 1.3 1.3 1.3.8.1 1.3-.3 1.3-1zm1.3 7.8c0-.7-.6-1.3-1.3-1.3-.6 0-1.2.5-1.2 1.1 0 .7.7 1.4 1.4 1.4.6 0 1.1-.5 1.1-1.2zm3.2-6.7c.7 0 1.2-.5 1.2-1.1 0-.7-.6-1.3-1.3-1.3-.7 0-1.3.5-1.3 1.1 0 .7.7 1.3 1.4 1.3z"/></svg>