<svg xmlns="http://www.w3.org/2000/svg" width="27.2" height="27.7" viewBox="0 0 27.2 27.7"><style>.st0{fill:#5ab947}</style><path class="st0" d="M13.6 0C23.4 0 30 10.1 26 19c-.4.9-.5 1.7-.2 2.6.5 1.6.8 3.2 1.2 4.8.3 1.2-.1 1.6-1.3 1.2-1.7-.5-3.4-1-5-1.6-.6-.2-1.2-.2-1.8.1C10.4 29.6 1.2 24.3.1 15.2-1 6.7 5.9-.1 13.6 0zm11.7 25.8c-.4-1.6-.7-2.9-1.1-4.2-.3-1-.2-1.9.2-2.9 2-4.3 1.6-8.5-1.2-12.3-2.8-3.8-6.8-5.4-11.4-4.7-4.9.8-8.3 3.7-9.7 8.5-1.4 4.8-.2 9 3.5 12.3 3.7 3.3 8.1 4 12.8 2.1 1-.4 1.9-.5 2.8-.1.3.1.7.2 1 .3.9.4 1.9.7 3.1 1z"/><path class="st0" d="M13.7 19.4c-3 0-5.8-2.3-6.1-5.2 0-.3-.1-.7 0-1 .1-.3.4-.6.7-.6.2 0 .6.3.7.5v.8c.4 2.3 2.4 3.9 4.6 3.9 2.2 0 4.1-1.7 4.5-3.9 0-.3 0-.5.1-.8.1-.4.3-.7.8-.7s.7.3.7.8 0 1-.1 1.4c-.7 2.8-3.1 4.7-5.9 4.8z"/></svg>