<svg xmlns="http://www.w3.org/2000/svg" width="27.9" height="33.2" viewBox="0 0 27.9 33.2"><style>.st0{fill:#5ab947}</style><path class="st0" d="M14 33.2c-.4-.3-.6-.4-.7-.6l-9.1-9.1C2.1 21.4.8 18.9.3 15.9c-1-6 2.3-12 7.9-14.6C16.4-2.5 26 2.4 27.7 11.4c.6 3.4 0 6.5-1.8 9.4-.7 1.1-1.5 2.1-2.4 3-2.8 2.9-5.6 5.7-8.5 8.5-.3.3-.6.6-1 .9zm-.1-1.5c3.3-3.2 6.5-6.3 9.5-9.5 2.8-2.9 3.9-6.5 3.3-10.5C25.2 2.6 14.5-2 6.8 3.2c-4.3 3-6.4 7.1-5.6 12.5.4 2.8 1.8 5.2 3.8 7.2 2.7 2.8 5.5 5.5 8.2 8.2.2.2.5.4.7.6z"/><path class="st0" d="M15.4 18.2h-2.9c0 .3-.1.6-.1.8-.1 1-.7 1.6-1.5 1.7-.8 0-1.5-.6-1.6-1.7v-.7c-.9-.2-1.1-.7-1.1-1.6.1-.8 0-1.7 0-2.6-.5-.1-.9-.2-1.4-.2-.3-1-.2-2-.1-3 .1-.7.9-.4 1.4-.6.1-.3.1-.7.2-1 .3-.9 1-1.5 2-1.5h7.2c1 0 1.8.7 2 1.7.1.2.1.5.1.8.5.1.9.1 1.3.2.3 1.1.1 2.2.1 3.4-.5.1-.9.2-1.5.3V17c0 .7 0 1.3-.9 1.3-.2 1.8-.7 2.5-1.6 2.5-.9-.1-1.4-.8-1.6-2.6zm3.2-5.3V9.8c0-.7-.4-1-1.1-1h-7.1c-.5 0-1 .2-1 .8-.1 1.1-.1 2.2 0 3.3h9.2zM9.3 17h9.1v-2.9H9.3V17zm8.2 1.2c-.2 0-.3-.1-.5-.1-.7.1-.5.6-.5 1 0 .2.4.4.6.5.1-.3.3-.5.4-.8.1-.2 0-.3 0-.6zm-6.2 0c-.9 0-1.1.2-1 .8.1.2.3.4.5.7.2-.2.4-.4.5-.6.1-.3 0-.6 0-.9zm-3.2-5.4v-1.4h-.3c-.1.5-.2 1 .3 1.4zm11.6 0h.4c-.1-.4.2-.9-.4-1.6v1.6z"/><path class="st0" d="M11.3 16.5c-.5 0-1-.5-1-1s.6-1.1 1.1-1c.5.1.9.6.9 1.1 0 .5-.5 1-1 .9zM17.5 15.6c0 .5-.5 1-1 1s-1-.5-1-1 .6-1.1 1.1-1.1c.5 0 .9.6.9 1.1z"/></svg>