<svg xmlns="http://www.w3.org/2000/svg" width="32.1" height="25.4" viewBox="0 0 32.1 25.4"><style>.st0{fill:#5ab947}</style><path class="st0" d="M26.5 17.7v6.5H32v1.2H2.8c-.3 0-.7.1-1 0-.2-.1-.5-.3-.6-.5-.1-.4.3-.6.6-.6h3.7c.3-1 .3-5 .1-6.6H3.1c-.5 0-1 0-1.4-.1-.9-.1-1.5-.8-1.6-1.7v-1c0-1.1 0-1.1 1.1-1.6V9.7v-5C1.2 1.9 3 .1 5.5 0h4c2.4.1 4.2 1.9 4.3 4.3v8.6c.4.2.8.3 1 .6.2.3.2.7.3 1.2h2c.2-.6 0-1.6 1.3-1.6v-2.9-5.6c-.1-3 2.3-4.9 4.8-4.7 1 .1 2.1 0 3.1 0 2.9 0 4.7 1.8 4.7 4.7v8.5c1 0 1.2.6 1.1 1.4v.5c0 1.8-.6 2.4-2.4 2.4h-2.8c-.2.1-.2.2-.4.3zm3.3-4.5V4.3c0-1.7-1.3-2.9-3.1-3-1.2-.1-2.3 0-3.5 0-2.4 0-3.7 1.2-3.7 3.6v7.4c0 .3.1.6.1 1 3.4-.1 6.7-.1 10.2-.1zm-27.5-.1c1.8.3 9.2.2 10.2-.1 0-3 .1-6 0-9 0-1.5-1.2-2.7-2.7-2.8-1.5-.1-3.1-.1-4.6 0-1.6.2-2.8 1.4-2.8 3-.1 2.9-.1 5.9-.1 8.9zm7 4.4c-.3 1.6-.2 5.7.1 6.6 2.2.2 12.6.1 13.5-.1v-6.3c-.5 0-.9-.1-1.3-.1h-2.3c-.7 0-1.3-.2-1.6-.9-.3-.6-.8-.7-1.4-.7H15c-.5 1.3-1.5 1.6-2.7 1.6-1-.1-2-.1-3-.1zm-7.9-3c-.2 1.6-.1 1.8 1.4 1.8h9.6c1.4 0 1.6-.2 1.4-1.8H1.4zm17.1 0c-.1 1.6 0 1.8 1.5 1.8h9.4c1.4 0 1.6-.2 1.4-1.8H18.5zM7 24c.7.2 1 0 1-.6v-5.3c0-.7-.4-.7-1-.5V24zm17.2.1h.9v-6.5c-.5-.1-.9-.1-.9.6v5.9z"/></svg>