<svg xmlns="http://www.w3.org/2000/svg" width="29.6" height="32.5" viewBox="0 0 29.6 32.5"><style>.st0{fill:#5ab947}</style><path class="st0" d="M0 4.2c2.8-.8 5.6-1.6 8.3-2.4C10.2 1.3 12 .7 13.9.2c.5-.1 1.1-.2 1.6 0C20 1.4 24.5 2.7 29 4c.2 0 .3.1.6.3-.2 1.5-.4 2.9-.6 4.4-.7 4.8-1.5 9.5-2.2 14.3-.1.5-.2 1-.7 1.3-3.6 2.6-7.2 5.3-10.8 8-.1.1-.2.1-.4.2-.2-.1-.4-.2-.6-.4-3.5-2.6-6.9-5.1-10.4-7.7-.7-.4-.9-.8-1-1.5C2 17 1 11.1.1 5.2c-.1-.3-.1-.6-.1-1zm26.9 9.5c-1.3-.3-10.5-.2-11.5 0-.3 2.2-.2 15.8.2 16.7.3-.2.6-.4 1-.7 2.6-1.9 5.2-3.9 7.8-5.7.8-.6 1.3-1.2 1.3-2.2 0-.8.2-1.5.4-2.3.3-1.9.5-3.9.8-5.8zm-24.2-.1c0 .1-.1.2-.1.3.4 2.9.9 5.7 1.3 8.6.1.6.4 1 .9 1.3 2.8 2.1 5.6 4.1 8.4 6.2.2.2.5.3.8.5V13.6H2.7zm12.7-1.4h11.8c.4-2.4.7-4.7 1.1-7.2-4.3-1.2-8.6-2.5-12.9-3.7v10.9zm-13 0h11.8c0-3.6.1-7.2-.1-10.9C9.8 2.6 5.5 3.8 1.3 5c.4 2.5.7 4.8 1.1 7.2z"/></svg>