<svg xmlns="http://www.w3.org/2000/svg" width="30.6" height="28.5" viewBox="0 0 30.6 28.5"><style>.st0{fill:#5ab947}</style><path class="st0" d="M28.3 3.3l-2-2C26 1 25.8.6 26.1.2c.4-.4.8-.2 1.1.1l3.1 3.1c.4.4.4.8 0 1.2l-3 3c-.3.3-.7.5-1.1.1-.5-.4-.2-.7.1-1.1.6-.6 1.2-1.2 2-1.9-.3 0-.4-.1-.6-.1H6.2c-3.6 0-5.8 3.3-4.3 6.7.7 1.6 2.1 2.3 3.8 2.5h18.5c.8 0 1.6.1 2.3.3 3 .8 4.4 3 4.2 6.4-.2 2.8-2.1 4.8-5.1 5.2-.6.1-1.1.1-1.7.1H7.5c-.5 0-.8.1-1 .6-.7 1.6-2.4 2.3-4 1.8C.9 27.7-.1 26 .2 24.5.5 23 2 21.8 3.6 21.9c1.4.1 2.3.9 2.9 2.1.2.4.3.5.7.5h17.3c4.5-.1 5.4-3.8 4.4-6.5-.6-1.6-2.3-2.7-4.3-2.7H6.4c-.6 0-1.1-.1-1.7-.2-4-.9-5.9-5.2-3.9-8.8 1.2-2.2 3.3-3 5.6-3H28.3zM5.4 25.2c0-1.2-.7-2-1.9-2s-2 .8-2 2 .8 2 2 2c1.1 0 1.9-.8 1.9-2z"/></svg>