<svg xmlns="http://www.w3.org/2000/svg" width="33.1" height="33.1" viewBox="0 0 33.1 33.1"><style>.st0{fill:#5ab947}</style><path class="st0" d="M33.1 16.6c0 9.1-7.5 16.5-16.5 16.6C7.4 33.1 0 25.6 0 16.5S7.5 0 16.6 0c9.1 0 16.5 7.4 16.5 16.6zM16.6 32c8.7 0 15.5-6.9 15.5-15.6 0-9-7.4-15.5-15.6-15.4C7.8 1.2 1 8 1 16.7c.1 8.5 7 15.4 15.6 15.3z"/><path class="st0" d="M16.5 2.1c8 0 14.5 6.5 14.5 14.6 0 7.8-6.6 14.4-14.3 14.4-8.1 0-14.6-6.5-14.7-14.6C2 8.6 8.6 2.1 16.5 2.1zm13.2 17.6c.1-1.2.2-2.2.3-3.3.1-.5-.2-.9-.6-1.1-.9-.5-1.8-1-2.8-1.4-4.9-2-10-2.4-15.2-1.5-2.6.5-5.1 1.4-7.5 2.8-.4.2-.8.5-.8 1.1.1 1.1.2 2.3.3 3.6 3.2-.4 6 .3 8.4 2.3 2.4 2 3.4 4.6 3.2 7.8h3c-.3-6.6 5.2-11 11.7-10.3zM3.5 14.2c4.2-2.3 8.6-3.3 13.2-3.3s8.9 1 13 3.3c-.3-4.5-5-10.8-12.8-11-8.1-.3-13 6.2-13.4 11zm10.3 15.4c.8-6-5.6-9.9-9.9-8.6 1 4 5.7 8.2 9.9 8.6zm15.3-8.7c-5.2-1.1-10.8 3.4-9.8 8.6 3.2 0 8.8-3.8 9.8-8.6z"/><path class="st0" d="M18.6 16.6c0 1.1-1 2.1-2.1 2-1.1 0-2.1-1-2-2.1 0-1.1 1-2.1 2.1-2 1.1 0 2 1 2 2.1zm-1 .1c.1-.6-.3-1-.8-1.1-.6-.1-1.1.2-1.2.8-.1.6.3 1 .8 1.1.6.1 1.1-.2 1.2-.8z"/></svg>