<svg xmlns="http://www.w3.org/2000/svg" width="41.5" height="41.9" viewBox="0 0 41.5 41.9"><style>.st0{fill:#5ab947}</style><path class="st0" d="M30.4 21.3h6.9v6.6h1.3c1.8.1 3 1.3 2.9 3 0 1.6-1.3 2.8-3 2.8h-1.2v7.6c0 .2-.3.4-.4.6-.1-.2-.4-.4-.4-.6v-6.4-1H5.8v7.5c0 .6 0 .6-.8.5v-8.1H3c-1.8-.1-3-1.2-3-2.9C0 29.3 1.2 28 3 28h1.9v-6.6h7.2v-.9-6.1c0-2.8 1.1-4.5 3.7-5.5 1.9-.8 1.9-.8 3 .9.8 1.1 1.6 2.3 2.4 3.5 1-1.4 2-2.8 2.9-4.2.4-.7.9-.9 1.6-.6 1.1.6 2.3 1.1 3.2 1.9 1 .8 1.5 2 1.5 3.4v7.5zm-4.7 0v6.5h.3V26c0-5.1-.5-10.2 1.6-15.1 0-.1.1-.1 0-.2 0-.1 0-.4-.1-.4-.8-.4-1.5-.9-2.4-1.1-.2-.1-.7.6-.9 1-.3.4-.5.8-.9 1.2-1.2 1.5-2.2 3.1-1.8 5.2.1.6-.2.7-.9.5.9-2.9-1.1-4.8-2.5-6.9-.7-1.2-.7-1.2-2-.6-.1 0-.2.1-.2.1-.7.3-.9.7-.7 1.5 1 3.1 1.9 6.3 1.5 9.6 0 .2.1.3.1.5h8.9zm-5 11.6H38.4c1.6 0 2.6-1.3 2.2-2.7-.3-1-1.1-1.5-2.5-1.5H2.6c-1.1.1-1.9 1-1.9 2.1s.8 1.9 1.9 2.1h18.1zm-4-10.7v5.7h8.1v-5.6h-2.6v2.2h-2.9v-2.2c-.9-.1-1.7-.1-2.6-.1zm19.8 0h-2.6v2.2h-3v-2.2h-2.6v5.7h8.1c.1-1.9.1-3.8.1-5.7zM8.4 24.4v-2.2H5.9v5.7H14v-5.6h-2.6v2.2c-1-.1-1.9-.1-3-.1zm6.5-3.1v6.6h1v-1V18c0-2.5-1.1-4.6-1.6-7.1-.9.9-1.3 1.8-1.3 2.9v7.5h1.9zm13.8-10.2c-.1 0-.2 0-.3.1-.5 1.9-1.3 3.8-1.5 5.7-.2 3.5-.1 7-.1 10.6v.2l.3.3c.1-.1.3-.2.3-.4v-1.1-5.2h2c0-2.8.1-5.6 0-8.3.1-.6-.4-1.3-.7-1.9zM9.3 23.6h1.3v-1.4c-.5 0-.8 0-1.3.1v1.3zm23.7 0v-1.4h-1.2v1.4H33zm-12.8-1.4v1.4h1.2v-1.4h-1.2z"/><path class="st0" d="M16.8 4.6c-.5 0-.9 0-1.3-.1-.3-.6 0-.8.6-.8.6.1.9-.1 1.1-.8.7-2.1 2.8-3.3 5-2.9 2.2.4 3.7 2.4 3.6 4.6-.1 2.2-1.8 4-4.1 4.2-2.3.2-4.2-1.2-4.7-3.4-.1-.3-.1-.5-.2-.8zm8.1 0h-7.1c.1 2 1.6 3.4 3.5 3.4 1.8.1 3.4-1.3 3.6-3.4zm-3.4-.9h3.2C24.3 1.9 22.8.8 21 .9c-1.6.1-3 1.3-3.2 2.9h1c0-.4.1-.7.1-1 1.2-.4.6.7.9 1 1 .3.6-.6.8-1 1.2-.5.7.5.9.9zM24.2 30.9c0 .8-.7 1.4-1.5 1.4-.9 0-1.5-.7-1.4-1.6 0-.8.7-1.4 1.5-1.4.8.1 1.4.8 1.4 1.6zm-1.5-1c-.3.4-.7.7-.6.9 0 .3.4.5.6.7.2-.2.6-.4.6-.6 0-.3-.3-.5-.6-1zM30.4 32.3c-.8 0-1.4-.7-1.4-1.5s.6-1.4 1.5-1.4c.8 0 1.5.7 1.5 1.5-.1.8-.8 1.4-1.6 1.4zm.1-2.4c-.3.5-.6.7-.6 1 0 .2.4.4.6.6.2-.2.6-.4.6-.7 0-.2-.3-.5-.6-.9zM20.3 30.9c0 .8-.6 1.4-1.5 1.4-.8 0-1.5-.6-1.5-1.4 0-.8.7-1.5 1.5-1.5.9 0 1.5.7 1.5 1.5zm-.5 0c-.4-.3-.7-.6-.9-.6-.2 0-.6.4-.6.6.1.3.4.6.6.7.1-.1.4-.4.9-.7zM28.1 30.9c0 .8-.7 1.4-1.5 1.4s-1.5-.7-1.5-1.5.7-1.4 1.5-1.4c.9 0 1.5.7 1.5 1.5zm-.5-.1c-.5-.3-.7-.6-1-.6-.2 0-.6.4-.6.6.1.3.4.6.6.6.3.1.5-.3 1-.6zM39.4 30.8c0 .8-.6 1.4-1.4 1.5-.8 0-1.5-.6-1.5-1.4 0-.8.6-1.5 1.5-1.5.8 0 1.4.6 1.4 1.4zm-.6.1c-.4-.3-.6-.7-.8-.6-.3.1-.5.4-.7.6.2.2.4.6.7.6.2 0 .4-.4.8-.6zM7.2 32.3c-.8 0-1.5-.6-1.5-1.4 0-.8.6-1.5 1.5-1.5.8 0 1.4.7 1.4 1.5.1.8-.5 1.4-1.4 1.4zm0-.5c.3-.5.6-.8.6-1.1 0-.2-.4-.6-.6-.6-.2 0-.6.4-.6.6 0 .4.3.6.6 1.1zM16.5 30.8c0 .8-.6 1.5-1.4 1.5-.8 0-1.5-.6-1.5-1.4 0-.8.6-1.5 1.5-1.5.7 0 1.4.6 1.4 1.4zm-1.6-.9c-.3.5-.6.7-.6 1 0 .2.5.6.6.5.3-.1.6-.4.6-.7.1-.1-.2-.4-.6-.8zM4.8 30.9c0 .8-.6 1.4-1.5 1.4s-1.5-.7-1.4-1.5c0-.8.7-1.4 1.5-1.4.9 0 1.5.6 1.4 1.5zm-.5-.1c-.5-.3-.8-.6-1-.6-.2 0-.5.4-.6.7 0 .2.4.5.6.5.3 0 .6-.3 1-.6zM34.1 29.4c.8 0 1.5.6 1.5 1.4 0 .8-.6 1.5-1.4 1.5-.9 0-1.5-.6-1.5-1.4-.1-.9.6-1.5 1.4-1.5zm.9 1.5c-.4-.3-.7-.7-.9-.7-.3 0-.6.4-.7.6 0 .1.3.6.6.6.3.1.6-.2 1-.5zM12.6 30.9c0 .8-.6 1.4-1.5 1.4-.8 0-1.4-.6-1.5-1.4 0-.8.7-1.5 1.5-1.5.9 0 1.5.6 1.5 1.5zm-.5-.1c-.4-.3-.7-.6-.9-.6-.3.1-.4.4-.7.7.2.2.4.6.6.6.3-.1.6-.4 1-.7z"/></svg>