<svg xmlns="http://www.w3.org/2000/svg" width="34.3" height="34.9" viewBox="0 0 34.3 34.9"><style>.st0{fill:#5ab947}</style><path class="st0" d="M21.1 34.8h-.8v-10h-6.5v10h-.9v-.9V1.2c0-1.2 0-1.2 1.2-1.2h6.2c.6 0 .9.2.9.9v33.5c0 .1-.1.2-.1.4zM13.9 4.9v3h6.3v-3h-6.3zm6.3 8h-6.4v2.9h6.4v-2.9zm0 6.9v-3h-6.4v3h6.4zm-6.3 1v3h6.3v-3h-6.3zm6.3-8.9v-3h-6.4v3h6.4zm-6.4-8h6.4V1h-6.4v2.9zM11.5 34.8h-.8v-14H.9v14H0v-1V5.2C0 4 0 4 1.2 4h9.4c.7 0 .9.2.9.9v29.6c.1 0 .1.1 0 .3zM.9 15.9h9.7v-3H.9v3zm0-8h9.7v-3H.9v3zm9.7 1H.9v2.9h9.7V8.9zm0 10.9v-3H.9v3h9.7zM33.4 12.7h-9.8v22.2h-1v-1.1-20.6c0-1.4 0-1.4 1.5-1.5V9.2c0-1.2 0-1.2 1.2-1.2h3c1.4 0 1.4 0 1.4 1.4v2.3h3.5c.6 0 1 .2 1 .9v22.2h-.8V12.7zm-4.6-3.8h-3.7v2.7h3.7V8.9z"/><path class="st0" d="M30.5 34.9c-.4 0-.6 0-.9-.1v-4.1h-2.1v4.1h-.9v-4.4c0-.5.3-.7.7-.7h2.6c.2 0 .7.4.7.6-.1 1.5-.1 3-.1 4.6zM18.1 30.6H16v4.2h-.8c0-.1-.1-.1-.1-.2v-4.1c0-.6.2-.8.8-.8h2.5c.5 0 .7.2.7.7v4.4h-.9c-.1-1.4-.1-2.8-.1-4.2zM4.8 34.8H4c0-.1-.1-.2-.1-.3v-4.1c0-.6.2-.8.8-.8h2.5c.2 0 .7.4.7.6.1 1.5 0 3 0 4.5H7v-4.1H4.9c-.1 1.4-.1 2.8-.1 4.2zM29 26.9c0 .3.1.7 0 1 0 .2-.3.3-.4.5-.1-.1-.4-.3-.4-.4-.1-.6-.1-1.3 0-1.9 0-.2.3-.3.5-.5.1.2.3.3.4.5 0 .2-.1.5-.1.8zM29 21.5c0 .3.1.7 0 1 0 .2-.3.3-.4.5-.1-.2-.4-.3-.4-.5-.1-.6-.1-1.3 0-1.9 0-.2.3-.3.5-.5.1.2.4.3.4.5 0 .3-.1.6-.1.9zM29.2 16.2c-.2.4-.5 1.3-.6 1.2-.8-.2-.3-.9-.4-1.4-.1-.3-.1-.6 0-.9.1-.2.3-.4.4-.6.2.2.4.3.4.5.1.3 0 .6 0 1l.2.2zM31.1 21.5c0-.3-.1-.6 0-.9.1-.2.3-.4.4-.6.2.2.4.3.4.5.1.6.1 1.2 0 1.8 0 .2-.3.3-.4.5-.1-.2-.3-.4-.4-.6-.1-.1 0-.4 0-.7zM26.1 21.4c0 .3.1.6 0 .9-.1.2-.3.4-.4.6-.1-.2-.4-.4-.4-.6-.1-.6-.1-1.2 0-1.8 0-.2.3-.4.4-.6.2.2.4.4.4.6.1.4 0 .7 0 .9zM25.2 26.9c0-.3-.1-.6 0-.9.1-.2.3-.4.4-.6.2.2.4.3.4.5.1.6.1 1.2 0 1.8 0 .2-.3.4-.4.5-.1-.2-.4-.4-.4-.6v-.7zM2.5 25.3v-1c0-.2.3-.4.4-.4.2 0 .5.2.5.4.1.7.1 1.3 0 2 0 .2-.3.3-.4.5-.1-.2-.4-.3-.4-.5-.2-.4-.1-.7-.1-1zM31.9 16.1c0 .3.1.7 0 1 0 .2-.3.3-.4.5-.1-.2-.4-.3-.4-.5-.1-.6-.1-1.3 0-1.9 0-.2.3-.3.5-.5.1.2.4.3.4.5s-.1.6-.1.9zM6.2 25.2c0 .3.1.7 0 1 0 .2-.3.3-.4.5-.1-.2-.4-.3-.4-.5-.1-.6-.1-1.2 0-1.8 0-.2.3-.4.5-.6.1.2.3.4.3.6.1.3 0 .6 0 .8zM9.3 25.4c-.2.4-.4 1.2-.6 1.2-.9-.1-.4-.8-.5-1.3-.1-.3-.1-.7 0-1 .1-.2.3-.4.4-.5.1.2.4.4.4.6.1.3 0 .6 0 1 .2-.1.3 0 .3 0zM26.1 16.1c0 .3.1.7 0 1 0 .2-.3.3-.4.5-.1-.2-.4-.3-.4-.5 0-.6-.1-1.3 0-1.9 0-.2.3-.3.4-.5.2.2.4.3.5.5 0 .2-.1.6-.1.9zM31.1 26.9v-1c0-.2.3-.3.4-.5.2.2.4.3.5.5.1.6.1 1.2 0 1.8 0 .2-.3.4-.4.5-.1-.2-.4-.4-.4-.6-.2-.1-.1-.4-.1-.7z"/></svg>