<svg xmlns="http://www.w3.org/2000/svg" width="45.2" height="21.1" viewBox="0 0 45.2 21.1"><style>.st0{fill:#5ab947}</style><path class="st0" d="M45.2 19.2h-3.4c-.3 0-.8.2-1 .5-1.5 1.9-4 1.9-5.6 0-.2-.3-.7-.5-1-.5H11c-.3 0-.8.2-1 .5-1.5 1.9-4 1.9-5.6 0-.2-.3-.7-.5-1-.5-1.1-.1-2.2 0-3.4 0V0h40.8c2.8 0 4.3 1.5 4.3 4.4v13.8c.1.3.1.6.1 1zm-1.1-1v-5.7h-2.8v-.9h2.8V8.8h-9.6v3.7h-1V8.8H.8c0 .3 0 .6.1.8.3 0 .6.1.9.1v.8c-.3.1-.6.1-.9.2v7.5h2.8v-.3c.1-1.7 1-2.9 2.4-3.3 1.4-.4 2.7 0 3.8 1.3.2.2.6.4 1 .4h5.3c0 .4 0 .7-.1 1h-5.7v.8h24c.2-2.3 1.4-3.8 3.3-3.7.8 0 1.6.4 2.2.8 1 .7 1.3 1.8 1.2 2.9 1.2.1 2.1.1 3 .1zm.1-10.6V4c0-1.9-1.2-3-3.1-3.1h-7.4v6.7h10.5zM32.6 1H25v6.6h7.6V1zM16.3 1v6.6h7.6V1h-7.6zM7.7 1v6.6h7.6V1H7.7zM1 7.6h5.6V1H1v6.6zm39.3 10.1c0-1.4-1.1-2.4-2.4-2.4-1.4 0-2.4 1.1-2.4 2.4 0 1.3 1.1 2.3 2.4 2.4 1.4 0 2.4-1 2.4-2.4zM7.1 15.4c-1.4 0-2.4 1.1-2.4 2.4 0 1.3 1.1 2.3 2.4 2.3 1.3 0 2.4-1.1 2.4-2.4.1-1.3-1-2.4-2.4-2.3z"/><path class="st0" d="M30.7 11.5v.9H6.8v-.9h23.9zM10.5 10.5v-.9h14.3v.9H10.5zM38 16.3c.7 0 1.4.7 1.4 1.4 0 .8-.7 1.5-1.5 1.5s-1.4-.7-1.4-1.4c0-.8.7-1.5 1.5-1.5zM7.2 16.3c.8 0 1.5.7 1.4 1.5 0 .7-.7 1.4-1.4 1.4-.8 0-1.5-.7-1.4-1.5-.1-.8.6-1.4 1.4-1.4z"/></svg>