<svg xmlns="http://www.w3.org/2000/svg" width="34.3" height="42.1" viewBox="0 0 34.3 42.1"><style>.st0{fill:#5ab947}</style><path class="st0" d="M12.5 18.7c1.5-.5 2-1.4 2.2-2.8.6-4.2 1.4-8.5 2.1-12.7 0-.2.1-.3.1-.6h4.9c.1 1.4.3 2.8.4 4.2h.1c.4-2.3.7-4.6 1.1-6.9H29c.5 4.7 1 9.3 1.5 14.1 1.3-.9 2.6-1.7 3.9-2.5v30.4c-.8.3-.8-.2-.8-.7v-11-1.1H.8v12.1c0 .5 0 1-.8.7V20.2c.3-.1.6-.1 1-.2-.4-1.1.5-1.5 1.2-1.9 3.1-2.1 6.2-4.1 9.3-6.2.3-.2.5-.3.9-.6.1 2.6.1 5 .1 7.4zm8.7 5.7H.9v3.7h25v-7.2H.9v.9h20.3v2.6zm2.1-12.6v7c2.1-1.4 4.1-2.7 6.1-4 .2-.1.3-.6.3-.9-.2-2.5-.5-4.9-.7-7.4 0-.5-.3-.6-.7-.6h-4.1c-.5 0-.7.1-.8.7-.2 1.8-.5 3.5-.8 5.2v.3c.1 0 .3-.1.7-.3zm3.4 16.4h6.8V21h-6.8v7.2zm-15.1-8.1V13h-.2c-3.1 2-6.1 4-9.2 6.1-.2.2-.3.6-.5 1h9.9zm21.9-6.9h-.2c-3.1 2-6.1 4-9.2 6.1-.2.1-.3.4-.5.7h9.9v-6.8zm-11.2 6.9v-6.8c-3.4 2.2-6.6 4.4-9.9 6.5 0 .1.1.2.1.2 3.3.1 6.5.1 9.8.1zM16.6 9.5c-.4 2.5-.8 4.9-1.3 7.5 2.1-1.4 4-2.7 6-4 .1-.1.2-.2.2-.3.1-1.1.2-2.1.3-3.2h-5.2zm3.8 13.3H.8v.8h19.5c.1-.4.1-.6.1-.8zM17.6 3.5c-.2 1-.3 2-.5 3h4.3c-.1-1.1-.2-2-.3-3h-3.5zM24.1.8c-.1.8-.2 1.5-.3 2.2h4.7c-.1-.8-.2-1.5-.2-2.2h-4.2zm4.6 4.3l.2-.2c-.3-.3-.5-.9-.8-.9-1.5-.1-2.9 0-4.5 0-.1.4-.1.8-.2 1.2 1.9-.1 3.6-.1 5.3-.1zM16.9 7.4c-.1.4-.1.8-.2 1.2h4.8c.1-1.2.1-1.2-1-1.2h-3.6z"/><path class="st0" d="M9.1 32.5h6.5V39H9.1v-6.5zm.8 2.7h2v-1.9h-2v1.9zm2.9-2v2h1.9v-2h-1.9zm-.9 4.9v-1.9h-2v1.9h2zm2.8 0v-1.9h-2v1.9h2zM31.1 38.9h-6.4v-6.5h6.4v6.5zm-3.7-3.7v-2h-2v2h2zm2.9-2h-2v2h2v-2zm-2.9 4.9v-2h-2v2h2zm1 0h1.9v-1.9h-1.9v1.9zM16.9 38.9v-6.5h6.5v6.5h-6.5zm2.7-3.7v-2h-1.9v2h1.9zm2.9-1.9h-2v2h2v-2zm-4.8 2.8v2h2v-2h-2zm2.9 0V38h1.9v-1.9h-1.9zM6.8 33.2H2.6v8.7l-.2.2c-.2-.2-.6-.3-.6-.5v-9.1h5.7V42c-.5.2-.7 0-.7-.6v-7.1-1.1z"/><path class="st0" d="M4.1 38.7c-1.3-.5-.6-1.4-.7-2.1-.1-.4-.2-1.1.7-.9v3z"/></svg>