<svg xmlns="http://www.w3.org/2000/svg" width="43.5" height="41.8" viewBox="0 0 43.5 41.8"><style>.st0{fill:#5ab947}</style><path class="st0" d="M21 7.4V0h7.6v24.8H30V0h7.7v24.9h3.4V41h1.7c.6 0 .8.2.6.8H.1c-.2-.5-.2-.8.5-.8h2V7.4H21zm19.3 18.4H7.4v15.1h32.9V25.8zM21 14H6.5v-3.5h14.4V8.3H3.4v32.6h3V24.8h14.5v-5.9H6.4v-3.5h14.5c.1-.4.1-.8.1-1.4zm15.8 10.8V6.6h-5.9v18.2h5.9zm-9-18.1H22v18.1h5.8V6.7zM21 13.2v-1.8H7.4v1.8H21zm0 3.2H7.3v1.7H21v-1.7zM31 3.6h5.9V.8H31v2.8zm-9.1 0h5.8V.8h-5.8v2.8zm14.9 1H31v1.1h5.8V4.6zM21.9 5.7h5.8V4.5h-5.8v1.2z"/><path class="st0" d="M12.2 37v-7.3h7.3V37h-7.3zm3.2-.8v-2.4h-2.3v2.4h2.3zm3.3-2.4h-2.4v2.3h2.4v-2.3zm-5.6-.9h2.3v-2.3h-2.3v2.3zm3.3-2.4v2.3h2.3v-2.3h-2.3zM37.3 37H30v-7.3h7.3V37zm-.8-.8v-2.3h-2.3v2.3h2.3zm-2.4-5.7v2.4h2.4v-2.4h-2.4zm-3.2 0v2.4h2.3v-2.4h-2.3zm2.3 3.3h-2c-.2 0-.4.2-.4.4v2h2.4v-2.4zM21.1 37v-7.3h7.3V37h-7.3zm3.2-.8v-2.3h-2.4v2.3h2.4zM22 32.9h2.4v-2.4H22v2.4zm5.6 0v-2.3h-2.3v2.3h2.3zm0 .9h-2.3v2.3h2.3v-2.3z"/></svg>