<svg xmlns="http://www.w3.org/2000/svg" width="30" height="33.1" viewBox="0 0 30 33.1"><style>.st0{fill:#5ab947}</style><path class="st0" d="M26.8 3.5l2.9 2.9c.5.5.1.9-.2 1.2-.3.3-.7.7-1.2.3-.3-.2-.5-.4-.9-.8-.4.4-.7.8-1 1.1 5.9 7.6 3.6 15.4 0 19.6-4.3 5-11.3 6.6-17.3 4-6.3-2.7-9.6-9-9-14.9C.8 9.5 5.5 4.8 13.7 3.1V1c0-.9.2-1 1.3-1 1 0 1.1.1 1.2.9v2.2c3.5.4 6.6 1.8 9.2 4.3.4-.4.8-.7 1.1-1.1-.4-.5-.7-.9-1.1-1.3.5-.5.9-.9 1.4-1.5zM28.7 18c0-7.6-6.2-13.7-13.8-13.7-7.6 0-13.7 6.2-13.7 13.8 0 7.5 6.3 13.8 13.8 13.7 7.6 0 13.7-6.2 13.7-13.8z"/><path class="st0" d="M15.6 12v3.1c0 .9-.1 1.8.8 2.5.7.6.5 1.7-.2 2.4-.4.3-.6.6-.7 1.2 0 .2-.4.5-.6.5-.2 0-.6-.3-.6-.5 0-.5-.3-.8-.7-1.2-.9-.8-.9-1.9 0-2.7.5-.5.6-.9.6-1.6V8.2c0-1.1.2-1.5.6-1.4.8.2.6.9.6 1.4.2 1.3.2 2.6.2 3.8z"/></svg>