<!-- Generator: Adobe Illustrator 21.0.2, SVG Export Plug-In  -->
<svg version="1.1"
	 xmlns="http://www.w3.org/2000/svg" xmlns:xlink="http://www.w3.org/1999/xlink" xmlns:a="http://ns.adobe.com/AdobeSVGViewerExtensions/3.0/"
	 x="0px" y="0px" width="28.6px" height="28.6px" viewBox="0 0 28.6 28.6" style="enable-background:new 0 0 28.6 28.6;"
	 xml:space="preserve">
<style type="text/css">
	.st0{fill:#5AB947;}
</style>
<defs>
</defs>
<path class="st0" d="M19.1,28.6c-0.3-0.1-0.5-0.3-0.9-0.5C20.1,24.8,22,21.6,24,18c-2,0.9-3.9,1.5-5.9,1.3c-2-0.2-3.8-1-5.5-2.3
	c-1,0.8-1.8,1.8-2.7,2.7c-0.9,0.9-1.8,1.8-2.6,2.7c-0.9,0.9-1.8,1.9-2.7,2.9c-0.4-0.4-0.6-0.6-0.9-0.9c2.7-2.7,5.4-5.4,8.1-8.1
	C8.9,12.8,8.4,9,10.4,4.9C7,6.6,3.8,8.5,0.5,10.4C0.3,10,0.2,9.8,0,9.5c0.3-0.2,0.6-0.4,0.9-0.6C5.1,6.5,9.3,4,13.5,1.6
	c3-1.7,6.1-2.1,9.3-0.7c5.1,2.3,7.3,8.3,4.6,13.3c-2.6,4.8-5.4,9.4-8.1,14.1C19.3,28.4,19.2,28.4,19.1,28.6z M18.9,18.3
	c4.8,0,8.6-3.8,8.6-8.6c0-4.8-3.8-8.5-8.5-8.5c-4.8,0-8.6,3.7-8.6,8.6C10.3,14.5,14,18.3,18.9,18.3z"/>
</svg>
