<!-- Generator: Adobe Illustrator 21.0.2, SVG Export Plug-In  -->
<svg version="1.1"
	 xmlns="http://www.w3.org/2000/svg" xmlns:xlink="http://www.w3.org/1999/xlink" xmlns:a="http://ns.adobe.com/AdobeSVGViewerExtensions/3.0/"
	 x="0px" y="0px" width="36.8px" height="23.9px" viewBox="0 0 36.8 23.9" style="enable-background:new 0 0 36.8 23.9;"
	 xml:space="preserve">
<style type="text/css">
	.st0{fill:#5AB947;}
</style>
<defs>
</defs>
<path class="st0" d="M11.7,20.1c-0.7,2.5-2.1,3.8-4,3.7c-1.9,0-3.2-1.3-3.8-3.8c-0.5,0-1,0-1.5,0C0.9,20,0.1,19.1,0,17.6
	c0-0.1,0-0.3,0-0.4c0-4.8,0-9.6,0-14.4C0,0.8,0.8,0,2.9,0c8.8,0,17.6,0,26.4,0c1.5,0,2.7,0.5,3.6,1.7c0.9,1.2,1.9,2.3,2.9,3.5
	c0.7,0.8,1,1.7,1,2.7c0,3.2,0,6.5,0,9.7c0,1.7-0.9,2.5-2.6,2.5c-0.5,0-1,0-1.5,0c-0.8,2.6-2.1,3.8-3.9,3.8c-1.8,0-3.2-1.3-3.9-3.7
	C20.5,20.1,16.1,20.1,11.7,20.1z M35.4,13.1c-0.8,0-1.4,0-2,0c-0.5,0-0.9-0.1-0.9-0.7c0-0.6,0.5-0.6,0.9-0.6c0.6,0,1.2,0,1.9,0
	c0-0.6,0-1,0-1.5c-11.4,0-22.7,0-34,0c0,0.5,0,1,0,1.4c0.5,0.1,1,0,1.4,0.2C3,12,3.2,12.4,3.2,12.6c0,0.2-0.3,0.4-0.5,0.5
	c-0.4,0.1-0.8,0.1-1.4,0.1c0,1.6,0,3.1,0,4.7c0,0.6,0.4,0.9,0.9,0.9c0.6,0,1.3,0,1.9,0c2-3.2,5.2-3.3,7.3-0.1c4.6,0,9.2,0,13.8,0
	c2.3-3.2,4.7-3.2,7.2,0c0.7,0,1.4,0,2.1,0c0.6,0,0.9-0.3,0.9-0.9C35.4,16.3,35.4,14.8,35.4,13.1z M25.1,1.4c0,2.5,0,5,0,7.5
	c3.5,0,6.8,0,10.3,0c0.2-1,0.2-1.9-0.5-2.7c-1.1-1.3-2.2-2.7-3.3-4c-0.3-0.4-0.8-0.7-1.3-0.7C28.6,1.3,26.8,1.4,25.1,1.4z M17.2,1.4
	c0,2.5,0,4.9,0,7.4c2.2,0,4.3,0,6.4,0c0-2.5,0-4.9,0-7.4C21.4,1.4,19.3,1.4,17.2,1.4z M7.9,8.9c0.1-2.5,0-4.9,0-7.5
	c-1.9,0-3.6,0-5.3,0c-1.1,0-1.3,0.2-1.3,1.3c0,1.8,0,3.5,0,5.3c0,0.3,0.1,0.6,0.1,0.9C3.6,8.9,5.6,8.9,7.9,8.9z M9.3,8.8
	c2.2,0,4.3,0,6.4,0c0-2.5,0-4.9,0-7.4c-2.2,0-4.2,0-6.4,0C9.3,3.9,9.3,6.3,9.3,8.8z M31.2,20.1c0-1.4-1-2.4-2.5-2.4
	c-1.4,0-2.4,1-2.4,2.4c0,1.4,1,2.4,2.5,2.4C30.2,22.5,31.2,21.5,31.2,20.1z M7.7,17.7c-1.4,0-2.4,1-2.4,2.5c0,1.4,1.1,2.4,2.5,2.4
	c1.4,0,2.4-1.1,2.4-2.5C10.2,18.6,9.2,17.7,7.7,17.7z"/>
<path class="st0" d="M20.9,13.4c-0.4,0-0.7,0-1.1,0c0-0.6,0-1.1,0-1.8c0.3,0,0.7-0.1,1.1-0.2C20.9,12.2,20.9,12.7,20.9,13.4z"/>
<path class="st0" d="M23.7,13.5c0-0.7,0-1.3,0-1.9c0.4,0,0.8,0,1.2,0c0,0.6,0,1.1,0,1.8C24.6,13.4,24.2,13.5,23.7,13.5z"/>
</svg>
