<svg xmlns="http://www.w3.org/2000/svg" width="45" height="30"><path d="M10.9 15.6c-1.9 1.5-4 3-6 4.6-1 .8-2.1 1.4-3.4.7C.2 20.2 0 19.1 0 17.8V3.3v-1C.3.3 2.3-.6 4 .4c.7.4 1.3 1 2 1.5 1.7 1.3 3.3 2.6 5 3.9 1.9-.7 9.4-.7 11.1 0 1.6-1.2 3.2-2.4 4.7-3.7.7-.5 1.3-1.1 2.1-1.6 1.9-1.3 4-.2 4.2 2v16.1c-.2 2.1-2.3 3.1-4.1 1.9-.8-.5-1.4-1.1-2.2-1.6-1.4-1.1-2.8-2.1-4.2-3.2-.4-.3-.7-.4-1.2-.2s-1 .2-1.5.2h-6.5c-.7.2-1.5 0-2.5-.1zm20.9-5V3c0-.6-.1-1.2-.7-1.5-.7-.3-1.2 0-1.6.4-2.1 1.6-4.1 3.2-6.2 4.8-.6.3-.8.7-.8 1.3v5.3c0 .7.3 1.1.8 1.5 1.8 1.3 3.6 2.7 5.3 4.1.3.2.6.5.9.7 1.1.7 2.1.3 2.2-1v-.9c.1-2.4.1-4.8.1-7.1zm-30.5 0v7.5c0 .7.1 1.3.8 1.6.7.3 1.2 0 1.6-.4 2.1-1.6 4.1-3.1 6.2-4.7.5-.4.7-.8.7-1.4v-5c0-.8-.2-1.3-.8-1.7-2-1.5-3.8-3-5.7-4.4-.3-.2-.5-.4-.8-.6-.9-.4-1.7 0-1.9 1-.1.3 0 .7 0 1-.1 2.4-.1 4.7-.1 7.1zm15.4-3.9H13c-.6 0-1 .2-1 .9v6.1c0 .7.3.9 1 .9h7.2c.9 0 1-.1 1-1V7.7c0-.8-.2-1-1-1-1.2-.1-2.4 0-3.5 0z" fill="#5ab947"/></svg>