<!-- Generator: Adobe Illustrator 21.0.2, SVG Export Plug-In  -->
<svg version="1.1"
	 xmlns="http://www.w3.org/2000/svg" xmlns:xlink="http://www.w3.org/1999/xlink" xmlns:a="http://ns.adobe.com/AdobeSVGViewerExtensions/3.0/"
	 x="0px" y="0px" width="31px" height="24.3px" viewBox="0 0 31 24.3" style="enable-background:new 0 0 31 24.3;"
	 xml:space="preserve">
<style type="text/css">
	.st0{fill:#5AB947;}
</style>
<defs>
</defs>
<path class="st0" d="M15.5,0C21.1,0.1,26,1.9,30.3,5.6c0.2,0.2,0.5,0.4,0.6,0.6C31,6.4,31,6.8,30.9,7c-0.2,0.4-0.6,0.3-0.9,0.1
	c-0.2-0.1-0.4-0.3-0.6-0.5c-8.2-7-19.6-7.1-27.8-0.1C1.4,6.7,1.2,6.9,1.1,7c-0.3,0.3-0.7,0.4-1,0c-0.1-0.2,0-0.6,0.1-0.9
	c0.1-0.3,0.4-0.4,0.6-0.6C5,1.9,9.9,0.1,15.5,0z"/>
<path class="st0" d="M16.5,6.5c2.9,0,6.3,1.3,9.2,3.8c0.4,0.3,1,0.6,0.6,1.3c-0.3,0.4-0.6,0.3-1.4-0.3c-5.8-4.7-13.2-4.7-19,0
	c-0.4,0.3-0.7,0.9-1.3,0.4c-0.4-0.3-0.3-0.7,0.4-1.4C7.8,7.9,11.7,6.5,16.5,6.5z"/>
<path class="st0" d="M15.6,13c2,0,3.9,0.7,5.5,1.9c0.2,0.2,0.5,0.4,0.6,0.6c0.1,0.2,0.1,0.5-0.1,0.7c-0.1,0.1-0.5,0.2-0.7,0.2
	c-0.3-0.1-0.5-0.3-0.8-0.5c-3-2.1-6.6-2.1-9.6,0c-0.2,0.2-0.5,0.4-0.7,0.5c-0.2,0.1-0.6,0-0.7-0.1c-0.1-0.2-0.1-0.6,0-0.8
	c0.1-0.2,0.4-0.4,0.7-0.6C11.6,13.6,13.4,13,15.6,13z"/>
<path class="st0" d="M18.2,21.6c0,1.5-1.3,2.7-2.8,2.7c-1.4,0-2.6-1.3-2.6-2.7c0-1.5,1.3-2.7,2.8-2.7C17,19,18.2,20.2,18.2,21.6z
	 M16.8,21.7c0-0.7-0.5-1.3-1.2-1.4c-0.7-0.1-1.4,0.6-1.4,1.3c0,0.7,0.6,1.3,1.3,1.3C16.1,23,16.8,22.4,16.8,21.7z"/>
</svg>
