<!-- Generator: Adobe Illustrator 21.0.2, SVG Export Plug-In  -->
<svg version="1.1"
	 xmlns="http://www.w3.org/2000/svg" xmlns:xlink="http://www.w3.org/1999/xlink" xmlns:a="http://ns.adobe.com/AdobeSVGViewerExtensions/3.0/"
	 x="0px" y="0px" width="34.9px" height="38.5px" viewBox="0 0 34.9 38.5" style="enable-background:new 0 0 34.9 38.5;"
	 xml:space="preserve">
<style type="text/css">
	.st0{fill:#5AB947;}
</style>
<defs>
</defs>
<path class="st0" d="M6.4,26.4c-0.1,0-0.3,0-0.4,0c-0.8,0-1.6,0-2.4,0c-2.1,0-3.6-1.5-3.6-3.6c0-2.5,0-5.1,0-7.6
	c0-2.2,1.5-3.7,3.7-3.7c0.9,0,1.8,0,2.7,0c0-0.1,0-0.3,0-0.4c0-2.5,0-4.9,0-7.4c0-1.6,0.9-2.9,2.4-3.4C9.2,0.1,9.6,0,10,0
	c4.6,0,9.1,0,13.7,0c0.1,0,0.3,0.1,0.4,0.2c3.5,3.5,7.1,7.1,10.6,10.6c0.1,0.1,0.2,0.3,0.2,0.5c0,7.9,0,15.8,0,23.7
	c0,2-1.6,3.6-3.6,3.6c-7.1,0-14.2,0-21.4,0c-2,0-3.6-1.5-3.6-3.6c0-2.7,0-5.4,0-8.1C6.4,26.7,6.4,26.5,6.4,26.4z M7.8,11.4
	c0.2,0,0.3,0,0.4,0c4.1,0,8.2,0,12.3,0c0.4,0,0.7,0,1.1,0.1c1.5,0.4,2.6,1.8,2.6,3.4c0,2.5,0,5,0,7.5c0,0.5,0,1.1-0.2,1.6
	c-0.5,1.5-1.8,2.4-3.5,2.4c-4.1,0-8.2,0-12.3,0c-0.1,0-0.3,0-0.4,0c0,0.2,0,0.3,0,0.4c0,2.7,0,5.3,0,8c0,1.5,0.9,2.3,2.3,2.3
	c2.3,0,4.7,0,7,0c4.7,0,9.4,0,14.1,0c1.3,0,2.2-0.9,2.2-2.2c0-0.7,0-1.3,0-2c0-6.8,0-13.6,0-20.4c0-0.1,0-0.2,0-0.4
	c-0.1,0-0.3,0-0.4,0c-2.2,0-4.5,0-6.7,0c-2.1,0-3.6-1.6-3.6-3.6c0-2.2,0-4.5,0-6.7c0-0.1,0-0.2,0-0.4c-0.1,0-0.2,0-0.2,0
	c-4.1,0-8.3,0-12.4,0c-1.4,0-2.3,0.9-2.3,2.3c0,2.1,0,4.2,0,6.4C7.8,10.5,7.8,10.9,7.8,11.4z M32.5,10.7c-2.8-2.8-5.5-5.5-8.3-8.3
	c0,0,0,0.1,0,0.1c0,2,0,4,0,6c0,1.3,0.9,2.1,2.2,2.2c1,0,2.1,0,3.1,0C30.5,10.7,31.5,10.7,32.5,10.7z"/>
</svg>
