<!-- Generator: Adobe Illustrator 21.0.2, SVG Export Plug-In  -->
<svg version="1.1"
	 xmlns="http://www.w3.org/2000/svg" xmlns:xlink="http://www.w3.org/1999/xlink" xmlns:a="http://ns.adobe.com/AdobeSVGViewerExtensions/3.0/"
	 x="0px" y="0px" width="27.6px" height="13px" viewBox="0 0 27.6 13" style="enable-background:new 0 0 27.6 13;"
	 xml:space="preserve">
<style type="text/css">
	.st0{fill:#5AB947;}
</style>
<defs>
</defs>
<path class="st0" d="M27.6,6.4c0,0.3,0,0.5,0,0.8C27.2,12,22,14.6,18,12c-1.1-0.7-1.8-1.7-2.3-2.9c-0.6-1.7-0.6-3.4-0.1-5.1
	c0.6-1.9,1.8-3.1,3.7-3.7c1.3-0.4,2.6-0.5,3.9-0.1C26,0.9,27.7,3.3,27.6,6.4z M25.9,6.5c-0.1-0.8-0.2-1.6-0.4-2.3
	c-0.6-1.8-1.9-2.8-3.9-2.8c-2.1,0-3.5,0.8-4.2,2.6c-0.7,1.7-0.6,3.5,0.1,5.2c0.7,1.6,2.2,2.6,4,2.5c1.8-0.1,3.3-1,3.8-2.7
	C25.7,8.1,25.8,7.3,25.9,6.5z"/>
<path class="st0" d="M13.2,3.7c-0.3,0.1-0.5,0.1-0.7,0.1c-0.3,0-0.5,0-0.7,0c-0.3-0.6-0.6-1.2-1-1.7C9.9,1.1,7.4,1,6.3,1.9
	c-0.9,0.8-0.9,2,0.2,2.6C6.9,4.8,7.3,4.9,7.8,5c1,0.3,2.1,0.5,3.1,0.8c1.6,0.5,2.5,1.5,2.6,3c0.1,1.6-0.7,3-2.2,3.6
	c-1.9,0.8-3.8,0.7-5.6-0.1c-1.4-0.7-2-1.9-2.2-3.6c0.5-0.1,1-0.1,1.6-0.2c0.1,0.2,0.2,0.5,0.3,0.7c0.4,1.6,1.4,2.3,2.9,2.4
	c0.7,0,1.5-0.1,2.3-0.4c0.9-0.3,1.4-1.2,1.3-2.2c-0.1-1-0.7-1.5-1.5-1.7C9.4,7.2,8.6,7,7.8,6.8C7,6.6,6.2,6.4,5.5,6
	C3.7,5,3.4,2.7,4.9,1.3c0.2-0.2,0.4-0.3,0.6-0.5c1.6-1.1,4.6-1,6.2,0.1C12.6,1.5,13.1,2.4,13.2,3.7z"/>
<path class="st0" d="M0,0.4c0.5,0,0.9,0,1.3,0c0.3,0.9,0.3,10.4,0.1,12.1c-0.4,0-0.9,0-1.4,0C0,8.5,0,4.5,0,0.4z"/>
</svg>
