<!-- Generator: Adobe Illustrator 21.0.2, SVG Export Plug-In  -->
<svg version="1.1"
	 xmlns="http://www.w3.org/2000/svg" xmlns:xlink="http://www.w3.org/1999/xlink" xmlns:a="http://ns.adobe.com/AdobeSVGViewerExtensions/3.0/"
	 x="0px" y="0px" width="27.9px" height="28.4px" viewBox="0 0 27.9 28.4" style="enable-background:new 0 0 27.9 28.4;"
	 xml:space="preserve">
<style type="text/css">
	.st0{fill:#5AB947;}
</style>
<defs>
</defs>
<path class="st0" d="M22.6,5.2c-0.5,0-0.9,0-1.4,0c0-0.7,0-1.4,0-2.1c0-0.2,0-0.5,0-0.7c-0.1-1.1-0.3-1.3-1.4-1.1
	C18.9,1.5,18,1.8,17.2,2C13.3,3.1,9.4,4.1,5.6,5.2C4.3,5.5,3.1,6,2.2,7C3.8,6.3,5.4,6.6,7,6.6c5.5,0,11,0,16.4,0
	c2.2,0,4.4,2,4.4,4.4c-0.1,4.5,0,9,0,13.5c0,2.4-1.6,4-4,4c-6.6,0-13.2,0-19.8,0c-2.4,0-4-1.6-4-4c0-4.9,0-9.9,0-14.8
	c0-2.4,1-4.1,3.2-4.9C5,4,6.8,3.5,8.7,3C12,2,15.3,1.1,18.6,0.2C19.2,0.1,19.8,0,20.5,0c1.1,0,1.8,0.5,1.9,1.6
	C22.5,2.7,22.5,3.9,22.6,5.2z M13.9,27.1c3.3,0,6.6,0,9.9,0c1.8,0,2.7-0.9,2.7-2.7c0-4.5,0-9.1,0-13.6c0-1.9-1-2.9-2.9-2.9
	c-6.4,0-12.8,0-19.3,0c-1.9,0-2.9,1.1-2.9,2.9c0,4.5,0,9.1,0,13.6c0,1.8,0.8,2.7,2.7,2.7C7.3,27.1,10.6,27.1,13.9,27.1z"/>
<path class="st0" d="M24.5,17.5c0,0.9-0.8,1.6-1.7,1.6c-0.9,0-1.7-0.8-1.6-1.7c0-0.9,0.8-1.6,1.7-1.6C23.8,15.9,24.5,16.6,24.5,17.5
	z"/>
</svg>
