<svg xmlns="http://www.w3.org/2000/svg" width="40" height="40"><path d="M23.2 24.6c-.5.2-.9.4-1.2.5-1.2.4-2.4.3-3.5-.4-4.9-3.2-8.9-7.2-12.1-12.1-1-1.6-.9-3.3.4-4.7.4-.5.9-.9 1.4-1.4 1.2-1 2.8-1 4 .1l1.5 1.5c1.2 1.2 1.3 2.4.2 3.8-.1.2-.2.3-.4.6 1.6 1.9 3.3 3.6 5.2 5.2l.9-.6c1.3-.7 2.5-.6 3.5.5.5.4.9.9 1.4 1.4 1.3 1.3 1.4 2.6.2 4-.1.1-.2.3-.4.4 0 .3.1.6.2 1 .3 2.5-.7 4.4-2.9 5.5-1.6.8-3.3 1.1-5.1 1.2-8.7.4-16-6.2-16.5-14.9C-.4 8.9 5 2 12.3.4c8.9-2 17.5 3.9 18.9 12.9.6 3.7-.1 7.2-2.1 10.4-.2.3-.5.6-.8.8-.1.1-.5 0-.7-.1-.1-.1-.1-.4 0-.6.1-.2.3-.4.4-.7 5.3-9.1-.1-20.5-10.6-21.9C9.6.1 2.3 5.9 1.5 13.7c-.9 7.8 4 14.6 11.6 16.1 2.2.4 4.4.4 6.5-.2 1.1-.3 2.2-.8 2.9-1.8.7-1 .9-2 .7-3.2zM12 12.5c0-.1 0-.2.1-.2.3-.3.6-.7.8-1 .7-.9.7-1.4 0-2.3l-.9-.9c-1.8-1.8-1.9-1.8-3.7.1-1.5 1.5-1.6 2.4-.4 4.2 2.5 3.8 5.6 7 9.2 9.7.8.6 1.7 1.2 2.6 1.8 1 .6 1.9.5 2.7-.3.5-.5 1.1-1 1.6-1.6.6-.7.5-1.3 0-2-.5-.5-1-1-1.5-1.6-1.1-1.1-1.4-1.1-2.6 0-.9.8-1.1.9-1.9.1-1.8-1.7-3.5-3.5-5.3-5.3-.4-.1-.6-.4-.7-.7z" fill="#fff"/></svg>