<!-- Generator: Adobe Illustrator 21.0.2, SVG Export Plug-In  -->
<svg version="1.1"
	 xmlns="http://www.w3.org/2000/svg" xmlns:xlink="http://www.w3.org/1999/xlink" xmlns:a="http://ns.adobe.com/AdobeSVGViewerExtensions/3.0/"
	 x="0px" y="0px" width="27.9px" height="33.2px" viewBox="0 0 27.9 33.2" style="enable-background:new 0 0 27.9 33.2;"
	 xml:space="preserve">
<style type="text/css">
	.st0{fill:#5AB947;}
</style>
<defs>
</defs>
<path class="st0" d="M14,33.2c-0.4-0.3-0.6-0.4-0.7-0.6c-3-3-6.1-6.1-9.1-9.1c-2.1-2.1-3.4-4.6-3.9-7.6c-1-6,2.3-12,7.9-14.6
	C16.4-2.5,26,2.4,27.7,11.4c0.6,3.4,0,6.5-1.8,9.4c-0.7,1.1-1.5,2.1-2.4,3c-2.8,2.9-5.6,5.7-8.5,8.5C14.7,32.6,14.4,32.9,14,33.2z
	 M13.9,31.7c3.3-3.2,6.5-6.3,9.5-9.5c2.8-2.9,3.9-6.5,3.3-10.5C25.2,2.6,14.5-2,6.8,3.2c-4.3,3-6.4,7.1-5.6,12.5
	C1.6,18.5,3,20.9,5,22.9c2.7,2.8,5.5,5.5,8.2,8.2C13.4,31.3,13.7,31.5,13.9,31.7z"/>
<path class="st0" d="M15.4,18.2c-0.9,0-1.8,0-2.9,0c0,0.3-0.1,0.6-0.1,0.8c-0.1,1-0.7,1.6-1.5,1.7c-0.8,0-1.5-0.6-1.6-1.7
	c0-0.2,0-0.4,0-0.7c-0.9-0.2-1.1-0.7-1.1-1.6c0.1-0.8,0-1.7,0-2.6c-0.5-0.1-0.9-0.2-1.4-0.2c-0.3-1-0.2-2-0.1-3
	c0.1-0.7,0.9-0.4,1.4-0.6C8.2,10,8.2,9.6,8.3,9.3c0.3-0.9,1-1.5,2-1.5c2.4,0,4.8,0,7.2,0c1,0,1.8,0.7,2,1.7c0.1,0.2,0.1,0.5,0.1,0.8
	c0.5,0.1,0.9,0.1,1.3,0.2c0.3,1.1,0.1,2.2,0.1,3.4c-0.5,0.1-0.9,0.2-1.5,0.3c0,0.9,0,1.9,0,2.8c0,0.7,0,1.3-0.9,1.3
	c-0.2,1.8-0.7,2.5-1.6,2.5C16.1,20.7,15.6,20,15.4,18.2z M18.6,12.9c0-1.1,0-2.1,0-3.1c0-0.7-0.4-1-1.1-1c-2.4,0-4.7,0-7.1,0
	c-0.5,0-1,0.2-1,0.8c-0.1,1.1-0.1,2.2,0,3.3C12.5,12.9,15.4,12.9,18.6,12.9z M9.3,17c3.1,0,6.1,0,9.1,0c0-1,0-2,0-2.9
	c-3.1,0-6.1,0-9.1,0C9.3,15.1,9.3,16,9.3,17z M17.5,18.2c-0.2,0-0.3-0.1-0.5-0.1c-0.7,0.1-0.5,0.6-0.5,1c0,0.2,0.4,0.4,0.6,0.5
	c0.1-0.3,0.3-0.5,0.4-0.8C17.6,18.6,17.5,18.5,17.5,18.2z M11.3,18.2c-0.9,0-1.1,0.2-1,0.8c0.1,0.2,0.3,0.4,0.5,0.7
	c0.2-0.2,0.4-0.4,0.5-0.6C11.4,18.8,11.3,18.5,11.3,18.2z M8.1,12.8c0-0.5,0-0.9,0-1.4c-0.1,0-0.2,0-0.3,0
	C7.7,11.9,7.6,12.4,8.1,12.8z M19.7,12.8c0.1,0,0.3,0,0.4,0c-0.1-0.4,0.2-0.9-0.4-1.6C19.7,11.9,19.7,12.4,19.7,12.8z"/>
<path class="st0" d="M11.3,16.5c-0.5,0-1-0.5-1-1c0-0.5,0.6-1.1,1.1-1c0.5,0.1,0.9,0.6,0.9,1.1C12.3,16.1,11.8,16.6,11.3,16.5z"/>
<path class="st0" d="M17.5,15.6c0,0.5-0.5,1-1,1c-0.5,0-1-0.5-1-1c0-0.5,0.6-1.1,1.1-1.1C17.1,14.5,17.5,15.1,17.5,15.6z"/>
</svg>
