<!-- Generator: Adobe Illustrator 21.0.2, SVG Export Plug-In  -->
<svg version="1.1"
	 xmlns="http://www.w3.org/2000/svg" xmlns:xlink="http://www.w3.org/1999/xlink" xmlns:a="http://ns.adobe.com/AdobeSVGViewerExtensions/3.0/"
	 x="0px" y="0px" width="32.1px" height="25.4px" viewBox="0 0 32.1 25.4" style="enable-background:new 0 0 32.1 25.4;"
	 xml:space="preserve">
<style type="text/css">
	.st0{fill:#5AB947;}
</style>
<defs>
</defs>
<path class="st0" d="M26.5,17.7c0,2.1,0,4.2,0,6.5c1.9,0,3.7,0,5.5,0c0,0.4,0,0.8,0,1.2c-0.5,0-0.9,0-1.3,0c-9.3,0-18.6,0-27.9,0
	c-0.3,0-0.7,0.1-1,0c-0.2-0.1-0.5-0.3-0.6-0.5c-0.1-0.4,0.3-0.6,0.6-0.6c0.9,0,1.8,0,2.7,0c0.3,0,0.7,0,1,0c0.3-1,0.3-5,0.1-6.6
	c-0.8,0-1.7,0-2.5,0c-0.5,0-1,0-1.4-0.1c-0.9-0.1-1.5-0.8-1.6-1.7c0-0.3,0-0.7,0-1c0-1.1,0-1.1,1.1-1.6c0-1.2,0-2.4,0-3.6
	c0-1.7,0-3.4,0-5C1.2,1.9,3,0.1,5.5,0c1.3,0,2.7,0,4,0c2.4,0.1,4.2,1.9,4.3,4.3c0,2.4,0,4.8,0,7.2c0,0.5,0,0.9,0,1.4
	c0.4,0.2,0.8,0.3,1,0.6c0.2,0.3,0.2,0.7,0.3,1.2c0.6,0,1.3,0,2,0c0.2-0.6,0-1.6,1.3-1.6c0-1,0-2,0-2.9c0-1.9,0-3.7,0-5.6
	c-0.1-3,2.3-4.9,4.8-4.7c1,0.1,2.1,0,3.1,0c2.9,0,4.7,1.8,4.7,4.7c0,2.3,0,4.7,0,7c0,0.5,0,0.9,0,1.5c1,0,1.2,0.6,1.1,1.4
	c0,0.2,0,0.3,0,0.5c0,1.8-0.6,2.4-2.4,2.4c-0.9,0-1.9,0-2.8,0C26.7,17.5,26.7,17.6,26.5,17.7z M29.8,13.2c0-3.1,0-6,0-8.9
	c0-1.7-1.3-2.9-3.1-3c-1.2-0.1-2.3,0-3.5,0c-2.4,0-3.7,1.2-3.7,3.6c0,2.5,0,4.9,0,7.4c0,0.3,0.1,0.6,0.1,1
	C23,13.2,26.3,13.2,29.8,13.2z M2.3,13.1c1.8,0.3,9.2,0.2,10.2-0.1c0-3,0.1-6,0-9c0-1.5-1.2-2.7-2.7-2.8c-1.5-0.1-3.1-0.1-4.6,0
	C3.6,1.4,2.4,2.6,2.4,4.2C2.3,7.1,2.3,10.1,2.3,13.1z M9.3,17.5c-0.3,1.6-0.2,5.7,0.1,6.6c2.2,0.2,12.6,0.1,13.5-0.1
	c0-2.1,0-4.2,0-6.3c-0.5,0-0.9-0.1-1.3-0.1c-0.8,0-1.6,0-2.3,0c-0.7,0-1.3-0.2-1.6-0.9c-0.3-0.6-0.8-0.7-1.4-0.7c-0.4,0-0.9,0-1.3,0
	c-0.5,1.3-1.5,1.6-2.7,1.6C11.3,17.5,10.3,17.5,9.3,17.5z M1.4,14.5c-0.2,1.6-0.1,1.8,1.4,1.8c3.2,0,6.4,0,9.6,0
	c1.4,0,1.6-0.2,1.4-1.8C9.6,14.5,5.6,14.5,1.4,14.5z M18.5,14.5c-0.1,1.6,0,1.8,1.5,1.8c3.1,0,6.3,0,9.4,0c1.4,0,1.6-0.2,1.4-1.8
	C26.7,14.5,22.7,14.5,18.5,14.5z M7,24c0.7,0.2,1,0,1-0.6c0-1.8,0-3.5,0-5.3c0-0.7-0.4-0.7-1-0.5C7,19.8,7,21.9,7,24z M24.2,24.1
	c0.4,0,0.6,0,0.9,0c0-2.2,0-4.3,0-6.5c-0.5-0.1-0.9-0.1-0.9,0.6C24.2,20.1,24.2,22,24.2,24.1z"/>
</svg>
