<svg xmlns="http://www.w3.org/2000/svg" width="40" height="40"><style>.st0{fill:#5ab947}</style><path class="st0" d="M6.2 4.1c.4-.1.7-.3 1-.4C15.6-.5 25.3 5 26.1 14.4v.1c0 .4.2 1.1-.5 1.2-.7.1-.5-.6-.6-1-.4-6-4.7-10.1-9.5-11-3.3-.7-6.3-.1-9.3 1.9.9.3 1.6.6 2.3.9.6.2 1.2.4 1.8.7.2.1.5.5.5.6-.1.4-.5.4-.9.2-1.7-.6-3.4-1.3-5.3-2C5 4.1 5.4 2.3 5.8.5c.1-.4.3-.7.7-.5.2.1.3.5.3.7-.1.9-.3 1.7-.5 2.5 0 .3 0 .6-.1.9zM21.4 23.2c-.4 1.9-.8 3.7-1.2 5.5-.1.2-.4.5-.6.5-.5 0-.5-.4-.4-.8.2-1 .4-2.1.7-3.3-.4.2-.7.2-.9.4-8 4-17.2-.5-18.8-9.3-.2-.6-.2-1.3-.2-2 0-.2.3-.4.5-.6.1.2.4.4.5.6.1.2 0 .5 0 .8.6 8.8 10.9 14 18.3 9.1.1-.1.2-.1.5-.3-1.3-.5-2.4-.9-3.5-1.3-.3-.1-.6-.3-.9-.4-.1-.1-.2-.3-.1-.4.1-.2.3-.3.5-.4.1 0 .3 0 .5.1 1.6.5 3.2 1.1 5.1 1.8z"/></svg>