<!-- Generator: Adobe Illustrator 21.0.2, SVG Export Plug-In  -->
<svg version="1.1"
	 xmlns="http://www.w3.org/2000/svg" xmlns:xlink="http://www.w3.org/1999/xlink" xmlns:a="http://ns.adobe.com/AdobeSVGViewerExtensions/3.0/"
	 x="0px" y="0px" width="26.1px" height="29.3px" viewBox="0 0 26.1 29.3" style="enable-background:new 0 0 26.1 29.3;"
	 xml:space="preserve">
<style type="text/css">
	.st0{fill:#5AB947;}
</style>
<defs>
</defs>
<path class="st0" d="M6.2,4.1C6.6,4,6.9,3.8,7.2,3.7C15.6-0.5,25.3,5,26.1,14.4c0,0,0,0.1,0,0.1c0,0.4,0.2,1.1-0.5,1.2
	c-0.7,0.1-0.5-0.6-0.6-1c-0.4-6-4.7-10.1-9.5-11c-3.3-0.7-6.3-0.1-9.3,1.9c0.9,0.3,1.6,0.6,2.3,0.9c0.6,0.2,1.2,0.4,1.8,0.7
	c0.2,0.1,0.5,0.5,0.5,0.6C10.7,8.2,10.3,8.2,9.9,8c-1.7-0.6-3.4-1.3-5.3-2c0.4-1.9,0.8-3.7,1.2-5.5c0.1-0.4,0.3-0.7,0.7-0.5
	c0.2,0.1,0.3,0.5,0.3,0.7C6.7,1.6,6.5,2.4,6.3,3.2C6.3,3.5,6.3,3.8,6.2,4.1z"/>
<path class="st0" d="M21.4,23.2c-0.4,1.9-0.8,3.7-1.2,5.5c-0.1,0.2-0.4,0.5-0.6,0.5c-0.5,0-0.5-0.4-0.4-0.8c0.2-1,0.4-2.1,0.7-3.3
	c-0.4,0.2-0.7,0.2-0.9,0.4c-8,4-17.2-0.5-18.8-9.3C0,15.6,0,14.9,0,14.2c0-0.2,0.3-0.4,0.5-0.6C0.6,13.8,0.9,14,1,14.2
	C1.1,14.4,1,14.7,1,15c0.6,8.8,10.9,14,18.3,9.1c0.1-0.1,0.2-0.1,0.5-0.3c-1.3-0.5-2.4-0.9-3.5-1.3c-0.3-0.1-0.6-0.3-0.9-0.4
	c-0.1-0.1-0.2-0.3-0.1-0.4c0.1-0.2,0.3-0.3,0.5-0.4c0.1,0,0.3,0,0.5,0.1C17.9,21.9,19.5,22.5,21.4,23.2z"/>
</svg>