<!-- Generator: Adobe Illustrator 21.0.2, SVG Export Plug-In  -->
<svg version="1.1"
	 xmlns="http://www.w3.org/2000/svg" xmlns:xlink="http://www.w3.org/1999/xlink" xmlns:a="http://ns.adobe.com/AdobeSVGViewerExtensions/3.0/"
	 x="0px" y="0px" width="30.6px" height="28.5px" viewBox="0 0 30.6 28.5" style="enable-background:new 0 0 30.6 28.5;"
	 xml:space="preserve">
<style type="text/css">
	.st0{fill:#5AB947;}
</style>
<defs>
</defs>
<path class="st0" d="M28.3,3.3c-0.8-0.8-1.4-1.4-2-2C26,1,25.8,0.6,26.1,0.2c0.4-0.4,0.8-0.2,1.1,0.1c1,1,2,2,3.1,3.1
	c0.4,0.4,0.4,0.8,0,1.2c-1,1-2,2-3,3c-0.3,0.3-0.7,0.5-1.1,0.1C25.7,7.3,26,7,26.3,6.6c0.6-0.6,1.2-1.2,2-1.9
	c-0.3,0-0.4-0.1-0.6-0.1c-7.2,0-14.4,0-21.5,0c-3.6,0-5.8,3.3-4.3,6.7c0.7,1.6,2.1,2.3,3.8,2.5c0.4,0,0.7,0,1.1,0
	c5.8,0,11.6,0,17.4,0c0.8,0,1.6,0.1,2.3,0.3c3,0.8,4.4,3,4.2,6.4c-0.2,2.8-2.1,4.8-5.1,5.2c-0.6,0.1-1.1,0.1-1.7,0.1
	c-5.5,0-10.9,0-16.4,0c-0.5,0-0.8,0.1-1,0.6c-0.7,1.6-2.4,2.3-4,1.8c-1.6-0.5-2.6-2.2-2.3-3.7C0.5,23,2,21.8,3.6,21.9
	C5,22,5.9,22.8,6.5,24c0.2,0.4,0.3,0.5,0.7,0.5c5.8,0,11.5,0,17.3,0c4.5-0.1,5.4-3.8,4.4-6.5c-0.6-1.6-2.3-2.7-4.3-2.7
	c-3.4,0-6.9,0-10.3,0c-2.6,0-5.3,0-7.9,0c-0.6,0-1.1-0.1-1.7-0.2c-4-0.9-5.9-5.2-3.9-8.8C2,4.1,4.1,3.3,6.4,3.3c6.6,0,13.2,0,19.8,0
	C26.9,3.3,27.5,3.3,28.3,3.3z M5.4,25.2c0-1.2-0.7-2-1.9-2c-1.2,0-2,0.8-2,2c0,1.2,0.8,2,2,2C4.6,27.2,5.4,26.4,5.4,25.2z"/>
</svg>
