<!-- Generator: Adobe Illustrator 21.0.2, SVG Export Plug-In  -->
<svg version="1.1"
	 xmlns="http://www.w3.org/2000/svg" xmlns:xlink="http://www.w3.org/1999/xlink" xmlns:a="http://ns.adobe.com/AdobeSVGViewerExtensions/3.0/"
	 x="0px" y="0px" width="33.1px" height="33.1px" viewBox="0 0 33.1 33.1" style="enable-background:new 0 0 33.1 33.1;"
	 xml:space="preserve">
<style type="text/css">
	.st0{fill:#5AB947;}
</style>
<defs>
</defs>
<path class="st0" d="M33.1,16.6c0,9.1-7.5,16.5-16.5,16.6C7.4,33.1,0,25.6,0,16.5C0,7.4,7.5,0,16.6,0C25.7,0,33.1,7.4,33.1,16.6z
	 M16.6,32c8.7,0,15.5-6.9,15.5-15.6c0-9-7.4-15.5-15.6-15.4C7.8,1.2,1,8,1,16.7C1.1,25.2,8,32.1,16.6,32z"/>
<path class="st0" d="M16.5,2.1c8,0,14.5,6.5,14.5,14.6c0,7.8-6.6,14.4-14.3,14.4c-8.1,0-14.6-6.5-14.7-14.6C2,8.6,8.6,2.1,16.5,2.1z
	 M29.7,19.7c0.1-1.2,0.2-2.2,0.3-3.3c0.1-0.5-0.2-0.9-0.6-1.1c-0.9-0.5-1.8-1-2.8-1.4c-4.9-2-10-2.4-15.2-1.5
	c-2.6,0.5-5.1,1.4-7.5,2.8c-0.4,0.2-0.8,0.5-0.8,1.1c0.1,1.1,0.2,2.3,0.3,3.6c3.2-0.4,6,0.3,8.4,2.3c2.4,2,3.4,4.6,3.2,7.8
	c1.1,0,2,0,3,0C17.7,23.4,23.2,19,29.7,19.7z M3.5,14.2c4.2-2.3,8.6-3.3,13.2-3.3c4.6,0,8.9,1,13,3.3c-0.3-4.5-5-10.8-12.8-11
	C8.8,2.9,3.9,9.4,3.5,14.2z M13.8,29.6c0.8-6-5.6-9.9-9.9-8.6C4.9,25,9.6,29.2,13.8,29.6z M29.1,20.9c-5.2-1.1-10.8,3.4-9.8,8.6
	C22.5,29.5,28.1,25.7,29.1,20.9z"/>
<path class="st0" d="M18.6,16.6c0,1.1-1,2.1-2.1,2c-1.1,0-2.1-1-2-2.1c0-1.1,1-2.1,2.1-2C17.7,14.5,18.6,15.5,18.6,16.6z M17.6,16.7
	c0.1-0.6-0.3-1-0.8-1.1c-0.6-0.1-1.1,0.2-1.2,0.8c-0.1,0.6,0.3,1,0.8,1.1C17,17.6,17.5,17.3,17.6,16.7z"/>
</svg>
